<svg xmlns="http://www.w3.org/2000/svg" width="512" height="512"><path fill="#1D2E79" d="m169.063-.375 2.044-.024c27.633-.25 51.563 9.668 74.131 24.91C249.127 27.069 252.202 29 257 29c5.993-1.598 10.207-4.444 15.2-8.043C283.337 13.174 295.071 8.03 308 4l2.188-.689c31.672-9.468 67.03-3.224 95.655 12.092C412.793 19.28 418.93 23.876 425 29l2.86 2.363c17.547 15.144 30.341 36.188 36.952 58.325l.591 1.975c.59 2.103 1.108 4.209 1.597 6.337l.602 2.616c1.155 5.805 1.477 11.284 1.171 17.185-.937 18.557.57 30.46 10.697 46.583 9.24 15.798 14.132 35.987 17.78 53.804l.458 2.224c2.95 15.38 3.667 30.59 3.604 46.213l-.006 2.941c-.051 14.328-.398 28.356-3.306 42.434l-.602 2.979c-8.87 42.648-27.758 82.623-57.347 114.787a256 256 0 0 0-5.613 6.359c-6.018 6.87-12.47 12.883-19.598 18.594a275 275 0 0 0-5.461 4.5C396.69 469.928 382.669 478.306 368 486l-2.168 1.152C343.549 498.846 318.823 506.224 294 510l-3.535.553c-11.24 1.595-22.374 1.846-33.715 1.822l-2.922-.002C193.66 512.218 135.218 490.18 91 449a748 748 0 0 0-4.062-3.5C78.77 438.35 71.696 430.527 65 422l-1.518-1.908C55.845 410.469 48.92 400.768 43 390l-1.418-2.555c-12.45-22.594-21.65-46.32-26.832-71.632l-.458-2.225c-2.954-15.401-3.665-30.63-3.604-46.276l.005-2.942c.044-14.003.458-27.619 3.307-41.37l.488-2.573C19.458 194.367 28.13 166.303 43 144c.212-3.266.212-3.266.055-7.027q-.044-2.155-.084-4.311l-.05-2.277C42.318 99.75 49.587 72.258 69 48l1.344-1.684C76.87 38.216 83.597 31.215 92 25l2.313-1.785C107.193 13.664 121.618 7.272 137 3l3.566-1.031c9.411-2.232 18.88-2.28 28.496-2.344"/><path fill="#46CA8F" d="m169.063-.375 2.044-.024c27.633-.25 51.563 9.668 74.131 24.91C249.127 27.069 252.202 29 257 29c5.958-1.42 10.97-4.615 16-8l.078 2.563c.398 7.957.956 14.318 6.637 20.218 2.739 2.455 4.763 4.045 8.285 5.219l-.48 2.895c-1.93 13.646-1.8 27.9 5.605 39.918 7.379 9.162 18.199 12.471 29.003 15.853 8.462 2.657 16.662 5.448 24.622 9.397l1.949.958c4.262 2.195 7.71 4.801 11.301 7.979l-1.059 1.371c-3.477 5.212-4.286 9.634-4.378 15.817-.126 7.589-1.827 12.942-5.286 19.664-1.783 4.395-1.865 8.065-.578 12.625 3.248 7.06 7.394 11.75 14.301 15.523 4.2.621 8.421.46 12.656.4 4.454.057 6.831.29 10.723 2.647 3.02 3.402 4.738 6.64 6.558 10.766C397.8 215.113 404.364 221.636 413 229c-2.672 2.869-5.124 4.817-8.613 6.594l-2.748 1.414-2.952 1.492-3.076 1.584c-4.215 2.169-8.44 4.321-12.666 6.467-12.8 6.508-25.122 13.285-36.945 21.449l-1.853 1.272c-16.423 11.342-32.636 23.77-46.545 38.123-2.056 2.06-4.313 3.81-6.602 5.605a172 172 0 0 0-6.965 7.145c-7.242 7.674-14.58 12.3-25.234 13.093-12.155.259-19.285-2.146-28.094-10.539L228 320l-1.577-1.572q-3.379-3.371-6.74-6.76c-3.465-3.49-6.998-6.83-10.75-10.012-2.236-1.916-4.391-3.911-6.558-5.906-22.502-20.265-48.547-37.07-75.691-50.36C109.349 236.9 94.113 228.495 80 215l-2.04-1.848c-14.982-14.058-24.69-33.48-30.327-52.99-.589-2.011-1.233-3.996-1.887-5.986-8.71-28.633-2.49-61.98 11.129-87.988C60.397 59.72 64.394 53.756 69 48l1.344-1.684C76.87 38.216 83.597 31.215 92 25l2.313-1.785C107.193 13.664 121.618 7.272 137 3l3.566-1.031c9.411-2.232 18.88-2.28 28.496-2.344"/><path fill="#93DB79" d="M420.465 25.207A436 436 0 0 1 425 29l2.86 2.363c17.547 15.144 30.341 36.188 36.953 58.325l.59 1.975c3.06 10.9 3.989 21.668 3.972 32.962l-.003 1.994c-.048 11.01-1.06 20.903-4.372 31.381l-.715 2.394C459.21 177.179 451.767 192.845 440 206l-2.145 2.504C430.5 216.942 422.742 224.407 413 230a667 667 0 0 1-12-11l-1.852-1.727c-4.286-4.478-6.704-10.094-9.258-15.676-2.358-5.298-2.358-5.298-6.89-8.597-3.23-.339-6.443-.313-9.687-.312-6.852-.176-12.235-.35-17.688-4.946-5.055-5.42-8.327-10.42-8.852-18.031.252-4.118 1.288-6.44 3.165-10.086 3.018-6.282 3.554-11.717 3.657-18.62.175-6.066 1.72-10.233 5.405-15.005-11.945-9.826-26.886-14.494-41.477-18.92-12.56-3.86-22.04-9.26-28.523-21.08-3.21-6.468-3.268-13.106-3.312-20.187l-.018-2.594c.059-5.106.687-9.38 2.33-14.219l-2.062-.062c-5.54-1.769-8.844-6.208-11.875-11C271.952 32.352 272.78 25.858 273 20c11.217-6.823 22.444-12.119 35-16l2.179-.685c36.589-10.941 80.594-1.814 110.286 21.892"/><path fill="#FEC6AA" d="M474 249c5.272 1.806 8.946 4.236 12 9 2.828 8.484.74 18.007-1.187 26.5l-.688 3.144A1016 1016 0 0 1 482 297l-.615 2.692C474.91 327.773 466.015 356.737 452 382l-1.582 2.902c-5.344 9.376-12.097 16.04-20.793 22.348l-2.66 1.956A1786 1786 0 0 1 419 415l-4.418 3.25C399.046 429.57 382.332 439.89 364 446c-.87 2.609-1.17 4.326-1.297 7.012l-.121 2.427-.117 2.604-.13 2.678q-.204 4.233-.397 8.466l-.276 5.74q-.337 7.036-.662 14.073c-8.493 4.532-17.051 8.048-26.187 11.063l-1.956.65c-12.749 4.208-25.59 7.186-38.857 9.287l-2.445.39c-8.186 1.256-16.267 1.926-24.555 1.61.238-8.371.76-16.643 1.957-24.937 2.883-20.418 3.36-40.356 2.895-60.979-.278-15.043.71-27.881 7.96-41.396l1.045-2.012c2.944-5.552 6.258-10.73 10.143-15.676l1.64-2.137c11.433-14.023 30.186-21.893 47.715-24.558.76-.116 1.52-.232 2.304-.35a148 148 0 0 1 4.334-.565c15.485-2.128 30.09-11.3 43.766-18.376C414.42 308.802 414.42 308.802 426 310c4.198 1.813 6.232 4.446 9 8l1.19-3.402 6.376-18.226.93-2.66.929-2.655q.927-2.649 1.859-5.298c1.48-4.212 2.947-8.428 4.375-12.658l.796-2.328q.728-2.133 1.435-4.273c3.482-10.123 9.73-18.418 21.11-17.5M47.063 250.063C56.166 256.067 58.629 265.098 62 275l1.966 5.697c1.7 4.92 3.397 9.84 5.076 14.768 2.571 7.542 5.193 15.06 7.958 22.535l1.688-2.312c3.367-3.914 5.64-5.48 10.812-6.125 13.896.691 26.706 8.79 38.75 15q4.22 2.168 8.448 4.32 2.61 1.329 5.212 2.678c7.427 3.79 14.477 6.521 22.84 7.189 20.988 2.536 42.656 11.577 56.438 27.938 11.363 15.042 19.39 32.364 18.832 51.44q-.052 3.006-.098 6.01l-.057 3.173c-.393 24.25 1.315 47.922 4.373 71.968.534 4.274.884 8.402.762 12.721-31.7.933-65.977-8.366-94-23l-.168-3.624q-.31-6.651-.632-13.301l-.27-5.759q-.192-4.136-.395-8.273l-.117-2.604-.12-2.427-.102-2.133c-.151-2.104-.151-2.104-1.196-4.879-1.764-.852-1.764-.852-3.941-1.379-5.33-1.626-10.08-3.956-14.996-6.558l-2.768-1.462C110.195 427.936 95.555 417.009 81 406l-1.771-1.316C58.82 389.472 51.333 364.997 43 342l-1.719-4.61c-3.732-10.309-6.303-20.955-8.968-31.577l-.585-2.327c-9.43-37.74-9.43-37.74-5.228-46.423 5.62-6.886 11.748-10.059 20.563-7"/><path fill="#27A5FE" d="m106 17 .516 1.723c3.46 11.026 7.88 16.761 18.109 22.402 4.774 2.292 9.888 3.473 15.008 4.75 4.37 1.46 8.061 3.22 10.719 7.098 2.64 8.252.023 17.377-3.352 25.027-2.395 3.612-5.103 6.787-8 10-4.104 4.768-6.216 8.667-6.309 15.02l-.076 2.85q-.052 2.925-.094 5.85c-.172 6.149-1.175 10.608-3.521 16.28-2.225 12.625 4.26 26.664 11 37 6.33 9.008 15.127 14.633 25.723 17.395 4.591 1.22 8.565 3.14 12.527 5.73 3.121 1.874 5.695 2.17 9.313 2.375 4.964.29 7.454 1.402 11.437 4.5 4.392 2.749 8.051 4.171 13.25 4.5 3.237.229 4.557.38 7.375 2.125 1.96 3.387 1.827 5.498 1.375 9.375a82 82 0 0 1-1.5 3.75c-2.447 5.99-2.375 12.274-.562 18.438 1.98 2.7 3.898 4.47 6.437 6.625 6.526 5.55 10.914 12.994 11.905 21.628.223 2.893.41 5.788.595 8.684 1.066 13.761 3.288 25.183 14.145 34.633l2.042 1.68c5.728 4.78 9.885 11.108 10.938 18.562.038 2.333.046 4.667 0 7-7.792 2.597-17.238 1.91-24.652-1.562-4.686-2.87-8.472-6.574-12.348-10.438l-1.577-1.572q-3.379-3.371-6.74-6.76c-3.465-3.49-6.998-6.83-10.75-10.012-2.236-1.916-4.391-3.911-6.558-5.906-22.502-20.265-48.547-37.07-75.691-50.36C109.349 236.9 94.113 228.495 80 215l-2.04-1.848c-14.982-14.058-24.69-33.48-30.327-52.99-.589-2.011-1.233-3.996-1.887-5.986-8.71-28.633-2.49-61.98 11.129-87.988C60.397 59.72 64.394 53.756 69 48l1.344-1.684C93.962 17 93.962 17 106 17"/><path fill="#02BFFB" d="m273 21 .078 2.563c.398 7.957.956 14.318 6.637 20.218 2.739 2.455 4.763 4.045 8.285 5.219l-.48 2.895c-1.93 13.646-1.8 27.9 5.605 39.918 7.379 9.162 18.199 12.471 29.003 15.853 8.462 2.657 16.662 5.448 24.622 9.397l1.949.958c4.262 2.195 7.71 4.801 11.301 7.979l-1.059 1.371c-3.477 5.212-4.286 9.634-4.378 15.817-.126 7.589-1.827 12.942-5.286 19.664-1.783 4.395-1.865 8.065-.578 12.625 3.248 7.06 7.394 11.75 14.301 15.523 4.2.621 8.421.46 12.656.4 4.454.057 6.831.29 10.723 2.647 3.02 3.402 4.738 6.64 6.558 10.766C397.8 215.113 404.364 221.636 413 229c-2.672 2.869-5.124 4.817-8.613 6.594l-2.748 1.414-2.952 1.492-3.076 1.584c-4.215 2.169-8.44 4.321-12.666 6.467-12.8 6.508-25.122 13.285-36.945 21.449l-1.853 1.272c-16.425 11.344-32.595 23.777-46.534 38.103-2.068 2.083-4.215 3.932-6.613 5.625h-2q-1.723-4.874-3.437-9.75l-.987-2.79-.947-2.694-.873-2.476c-2.85-8.63-2.515-16.953 1.244-25.29 4.02-6.733 8.475-12.816 14.23-18.18 5.396-5.55 10.575-11.798 10.957-19.695-.063-3.454-.331-6.12-2.187-9.125-2.295-1.135-2.295-1.135-5-2-7.96-4.776-9.509-9.133-11.742-17.906-1.767-4.347-4.43-6.205-8.57-8.219-2.536-.883-2.536-.883-4.606-1.262-5.256-1.075-7.306-2.657-11.082-6.613-7.768-5.251-14.467-9.019-24-8-5.803 1.329-8.892 3.692-13 8-5.774 5.079-10.574 6.967-18.32 6.504-2.68-.504-2.68-.504-5.805-2.379-2.158-3.596-2.692-6.586-3.371-10.676-.75-3.647-1.871-5.816-4.504-8.449-3.549-.803-6.688-.68-9.937 1.004-3.822 1.845-7.934 1.67-12.063.996-2.5-2.187-2.5-2.187-4-5l-1.25-2.312c-1.53-5.485-1.566-9.192 1.125-14.125 3.794-4.575 8.301-4.165 13.96-4.868 3.14-.45 3.14-.45 5.099-2.207 3.01-2.167 6.166-2.141 9.754-2.425 9.034-.933 16.311-2.729 22.312-10.063 2.458-3.653 4.675-7.437 6.875-11.25 2.011-2.603 2.903-3.325 5.688-4.75 4.022-2.34 4.473-3.909 6.437-8 1.625-1.473 1.625-1.473 3.5-2.937 3.606-2.93 5.102-5.559 6.5-10.063q.184-2.06.313-4.125c.916-5.163 2.518-5.922 6.687-8.875 1.543-3.086 1.607-5.675 1-9-2.558-6.566-5.076-11.942-11-16-3.735-1.245-7.126-1.636-11-1-3.08 1.746-3.08 1.746-5 5a97 97 0 0 0-.625 4.875c-.543 3.587-1.074 4.843-3.762 7.363-6.928 4.616-6.928 4.616-11.136 4.98-4.161-2.047-5.68-5.915-7.79-9.906l-1.376-2.435C204.94 62.52 203.113 59.082 204 54c5.124-9.653 18.085-15.539 28-19 2.875-.562 2.875-.562 5 0 1.625 2.188 1.625 2.188 3 5 1.87 3.65 1.87 3.65 5 6 3.542.385 5.363.42 8.375-1.562 2.237-3.355 2.036-5.466 1.625-9.438-.911-3.322-.911-3.322-2-6l3.563-.25C262.507 28.014 268.1 21 273 21"/><path fill="#D1EF9E" d="M354.785-.348C381.147 1.946 406.13 12.538 426 30l2.516 2.078c17.355 14.735 29.818 35.917 36.296 57.61l.591 1.975c3.06 10.901 3.985 21.667 3.972 32.962v3.979c-.148 12.578-2.312 23.536-6.375 35.396-7.799-6.881-11.886-16.57-16.29-25.8-3.068-5.74-5.896-9.019-11.94-11.48-5.664-1.472-11.468-.998-17.27-.782-13.735.468-22.817-.847-33.5-9.938-1.662-1.957-2.78-3.726-4-6l1-2c.25-3.5.25-3.5 0-7-1.931-2.317-1.931-2.317-5.312-2.562-3.606.172-3.606.172-5.188 2.093a67 67 0 0 0-2.457 3.84C367 106 367 106 365 107c-5.294.347-8.747.524-13-3-2.236-2.758-2.949-4.397-3.25-7.937 1.942-4.76 5.902-6.586 10.25-9.063-.373-6.224-1.97-8.568-6-13-1.433-4.298-.864-8.378-.645-12.871-.09-3.186-.09-3.186-2.097-5.399-2.142-1.641-4.14-2.823-6.57-3.98C338.242 48.86 333.78 44.56 331 39c-.99-10.261 1.236-18.49 7-27 2.34-2.098 2.34-2.098 4.938-4.062 2.579-1.965 4.876-3.723 7-6.18C352 0 352 0 354.785-.348"/><path fill="#1D8CF1" d="M56 68c10.168 1.27 19.387 7.339 25.805 15.215C92.248 97.4 94.88 112.234 95.5 129.438c.988 26.54 7.816 49.034 26.5 68.562l1.602 1.793c6.924 7.474 15.875 13.072 24.203 18.855C161.482 228.176 172.72 238.895 176 256c.12 2.72.185 5.405.188 8.125l.037 2.207c.005 1.89-.103 3.781-.225 5.668l-2 2-1.781-1.477c-13.124-10.37-27.884-18.456-42.844-25.851l-2.253-1.115a911 911 0 0 0-11.019-5.344C102.522 233.668 90.923 225.445 80 215l-2.04-1.848c-14.982-14.058-24.69-33.48-30.327-52.99-.589-2.011-1.233-3.996-1.887-5.986C37.287 126.366 42.908 93.406 56 68"/><path fill="#92DB79" d="M160 0c27.046-.626 27.046-.626 40 3l1.913.504c13.95 3.705 26.545 9.848 38.548 17.844 2.618 1.704 5.308 3.2 8.039 4.715 4.036 2.421 6.161 4.25 7.5 8.937.63 4.485.552 6.237-2.125 9.938C251 47 251 47 248 47.562c-3.803-.713-5.337-1.755-8-4.562-1.231-2.3-2.1-4.538-3-7-5.649.514-9.912 2.041-14.937 4.625L219.94 41.7C214.3 44.65 207.947 48.106 205 54c-.909 6.155 1.988 10.27 5 15.375l1.445 2.52A638 638 0 0 0 215 78c5.575-.787 10.043-1.796 14-6 1.07-3.058 1.688-6.063 2.313-9.238C232 60 232 60 234.188 57.25c4.996-2.22 9.003-1.888 14-.125 6.215 4.144 9.517 9.88 11.812 16.875.563 3.75.563 3.75 0 7-2.375 2.813-2.375 2.813-5 5-2.491 2.491-2.414 3.807-2.875 7.25-1.093 6.44-3.065 10.068-8.187 14.25-3.089 2.272-3.089 2.272-4.313 5.5-1.744 3.22-2.358 3.575-5.437 5.188-4.767 2.68-6.53 6.371-8.864 11.19-1.239 2.453-2.609 4.485-4.324 6.622-10.385-2.663-18.86-10.108-24.316-19.191-5.11-10.54-5.167-22.663-5.72-34.137-.713-11.376-3.6-21.547-11.964-29.672-3.873-2.875-7.91-5.445-12-8-6.39-4.006-9.66-9.965-12-17-1.57-10.434.574-18.627 5-28"/><path fill="#6AD9FA" d="M352 0a1000 1000 0 0 1-2.797 3.316l-1.573 1.866C345.284 7.799 342.813 9.89 340 12h-2l-.867 2.215a96 96 0 0 1-2.203 5.039C331.926 25.829 330.98 31.805 332 39c3.51 7.426 9.98 11.208 17.047 14.79C351 55 351 55 353 58c.09 2.926.09 2.926-.062 6.313-.096 6.627.917 10.174 5.25 15.25C360 82 360 82 360.563 84.563c-.813 3.52-2.604 4.487-5.563 6.437l-2.25.875c-2.06 1.06-2.06 1.06-2.625 3.938-.136 3.462.071 5.235 1.875 8.187 4.156 2.567 8.271 2.45 13 2 2.482-1.878 3.753-3.577 5.313-6.25C372 98 372 98 375.5 97.563c3.5.437 3.5.437 5.438 1.5 1.713 3.124 1.477 5.437 1.062 8.937-2.456 4.722-5.73 7.926-10 11l-2.691 1.938-2.934 2-2.79 1.902c-2.585 1.16-2.585 1.16-4.53.586L357 124l-2.89-1.734-3.36-2.016c-10.128-5.894-20.954-9.436-32.125-12.812-12.99-3.94-22.92-9.213-29.625-21.438-3.21-6.468-3.268-13.106-3.312-20.187l-.018-2.594c.059-5.106.687-9.38 2.33-14.219l-2.062-.062c-5.54-1.769-8.844-6.208-11.875-11C271.952 32.352 272.78 25.858 273 20 298.28 4.622 322.53-.938 352 0"/><path fill="#FEA97B" d="M231 384c2.983 3.428 4.275 7.176 5.625 11.438l.656 1.986c2.294 7.059 2.81 12.956 2.64 20.314q-.046 3.024-.087 6.048l-.044 3.223c-.294 24.347 1.378 48.125 4.448 72.27.534 4.274.884 8.402.762 12.721-31.7.933-65.977-8.366-94-23l-.168-3.624q-.31-6.651-.632-13.301l-.27-5.759q-.192-4.136-.395-8.273l-.117-2.604-.12-2.427-.102-2.133c-.151-2.104-.151-2.104-1.196-4.879l-3-1v-1l1.686-.012c24.021-.307 49.568-4.18 67.314-21.988 6.457-7.308 10.796-14.813 14-24l1.09-3.078c.777-2.495 1.267-4.71 1.535-7.297zM280 384h1l.262 1.95c2.453 15.774 9.447 30.853 21.984 41.144 16.751 11.595 34.089 15.575 54.254 16.469l2.781.13q3.36.157 6.719.307l-1 2h-2c-.87 2.609-1.17 4.326-1.297 7.012l-.121 2.427-.117 2.604-.13 2.678q-.204 4.233-.397 8.466l-.276 5.74q-.337 7.036-.662 14.073c-8.493 4.532-17.051 8.048-26.187 11.063l-1.956.65c-12.749 4.208-25.59 7.186-38.857 9.287l-2.445.39c-8.186 1.256-16.267 1.926-24.555 1.61.238-8.371.76-16.643 1.957-24.937 2.883-20.418 3.36-40.356 2.895-60.979-.285-15.556 1.204-27.948 8.148-42.084"/><path fill="#27A6FE" d="M226.078 136.398C240.411 139.35 253.53 144.321 263 156c4.144 6.607 5.18 12.304 5.188 20.063l.037 2.181c.01 3.799-.067 5.52-2.225 8.756l-2.012-1.242-2.675-1.633-2.637-1.617c-6.305-3.553-11.75-4.636-18.86-3.008-4.766 1.586-7.33 3.844-10.816 7.5-5.774 5.079-10.574 6.967-18.32 6.504-2.68-.504-2.68-.504-5.805-2.379-2.158-3.596-2.692-6.586-3.371-10.676-.75-3.647-1.871-5.816-4.504-8.449-3.549-.803-6.688-.68-9.937 1.004-3.822 1.845-7.934 1.67-12.063.996-2.5-2.187-2.5-2.187-4-5l-1.25-2.312c-1.53-5.485-1.566-9.192 1.125-14.125 3.794-4.575 8.301-4.165 13.96-4.868 3.14-.45 3.14-.45 5.099-2.207 3.009-2.167 6.166-2.142 9.754-2.425 9.056-.91 18.032-7.84 26.39-6.665"/><path fill="#92DB79" d="M268 188v2c3.122 1.41 6.09 2.242 9.438 2.875 4.977 1.06 8.668 3.01 12.109 6.852 2.383 3.728 3.112 7.925 4.195 12.18 1.937 4.763 5.413 6.816 9.883 9.03 3.56 2.176 4.887 3.212 6.375 7.063.743 6.478-.615 10.504-4 16-1.915 2.364-4.027 4.485-6.187 6.625-6.36 6.538-11.201 13.534-15.813 21.375-6.605-2.338-10.54-6.324-13.875-12.437-1.342-4.09-1.345-8.237-1.5-12.5-.414-10.377-4.28-15.739-11.043-23.239-4.1-4.727-5.21-9.047-4.988-15.176C253.61 202.026 260.135 188 268 188"/><path fill="#FEAA7C" d="M442 298c6.53 9.796 8.187 19.52 6.375 30.938-3.087 10.409-8.72 18.51-16.375 26.062l-2.05 2.082c-11.344 10.83-26.317 17.244-40.387 23.73q-3.578 1.665-7.155 3.333-2.197 1.024-4.398 2.04a299 299 0 0 0-12.277 6.025c-2.451 1.118-4.097 1.376-6.733.79-2.312-1.562-2.312-1.562-4-4-.5-3.5-.5-3.5 0-7 3.002-3.76 6.773-5.612 11.047-7.61l2.087-1a1310 1310 0 0 1 6.616-3.14q4.306-2.051 8.61-4.11l2.155-1.028a1245 1245 0 0 0 15.188-7.378l1.958-.958c13.82-6.88 24.64-16.255 30.339-30.776.484-1.92.966-3.842 1.42-5.77 1.127-4.33 2.7-8.519 4.205-12.73l.984-2.781Q440.8 301.358 442 298M69 299c3.092 3.092 4.026 7 5.5 11.063l.934 2.49c1.487 4.057 2.753 8.02 3.625 12.256 2.473 11.896 11.666 20.58 21.476 27.026 10.048 6.314 20.772 11.255 31.567 16.13C155.207 378.414 155.207 378.414 157 382c.359 3.874.567 6.15-1.625 9.438-3.152 2.073-4.62 1.967-8.375 1.562-2.888-1.172-5.545-2.708-8.25-4.25-7.864-4.331-15.873-8.14-24.062-11.812C100.844 370.65 88.87 363.832 78 353l-1.922-1.852c-8.97-9.327-13.494-21.225-13.441-34.054.75-6.387 3.504-12.376 6.363-18.094"/><path fill="#93DB7A" d="M306 6c2.445 7.394 5 15.269 3 23-2.867 4.972-6.956 8.983-11 13l-2.008 2.152c-2.735 2.703-5.194 4.254-8.992 4.66-4.385-.357-6.718-2.615-9.523-5.843C272.017 35.69 272.669 28.852 273 20c23.76-14 23.76-14 33-14"/><path fill="#03C0FA" d="M192 2c13.301 1.398 32.171 6.171 42 16l-2.25 2.125c-2.872 2.74-2.872 2.74-4.5 6.188C225 29 225 29 222.89 29.309c-2.39-.059-2.39-.059-4.671-.293-2.608-.019-3.962.745-6.219 1.984-2-.062-2-.062-4-1a349 349 0 0 1-4-5l-2.625-1.25c-3.254-2.398-3.132-4.478-3.773-8.332-.845-3.394-2.568-5.867-4.579-8.691C192 5 192 5 192 2"/><path fill="#FADED2" d="M94 310c2.688 2.125 2.688 2.125 5 5l1.379 1.598c4.48 5.195 4.48 5.195 4.933 9.09-.418 4.434-1.825 6.618-4.312 10.312-4.275 2.85-7.984 2.73-13 2-4.374-1.818-6.563-4.253-8.937-8.312-1.625-5.639-2.123-9.644.687-15.063 3.982-4.646 8.13-5.812 14.25-4.625"/><path fill="#FBDFD3" d="M428 311c2.756 2.182 4.436 3.872 6 7 .539 6.251-.177 10.888-4 16-3.44 3.172-7.002 4.263-11.625 4.563-3.565-.164-4.324-.524-7.312-2.813-3.316-4.42-4.742-7.09-4.063-12.75 4.519-8.516 11.23-13.552 21-12"/></svg>