<?xml version="1.0" encoding="UTF-8"?>
<svg version="1.1" xmlns="http://www.w3.org/2000/svg" width="512" height="512">
<path d="M0 0 C8.20087103 4.77364134 12.89498073 10.5981538 15.77734375 19.64453125 C17.81711916 28.4674651 16.65036721 36.48845197 12.4375 44.5 C6.8981852 52.50259416 0.24096738 57.16203764 -9.296875 59.24609375 C-15.81920137 59.97704412 -22.21749607 59.53714775 -28 56.3125 C-31.25003063 54.18617822 -31.25003063 54.18617822 -33.7890625 54.984375 C-37.77308552 57.16155941 -41.0516216 60.00218061 -44.5 62.9375 C-46.02885595 64.21875203 -47.5588182 65.49868505 -49.08984375 66.77734375 C-49.84765137 67.41140137 -50.60545898 68.04545898 -51.38623047 68.69873047 C-54.39923224 71.19255222 -57.47228816 73.60302102 -60.5625 76 C-65.80436117 80.07818163 -70.9476981 84.26368806 -76.0625 88.5 C-81.19995442 92.75428375 -86.36510883 96.96040379 -91.625 101.0625 C-96.79336052 105.09332663 -101.91193484 109.18069196 -107 113.3125 C-107.6504126 113.83980713 -108.3008252 114.36711426 -108.97094727 114.91040039 C-113.22677894 118.37444943 -117.40863904 121.91428003 -121.5625 125.5 C-121.24023438 126.36109375 -120.91796875 127.2221875 -120.5859375 128.109375 C-118.16417612 136.13261499 -118.69958841 144.63437214 -122.25390625 152.22265625 C-127.00533804 160.49156591 -133.38367597 165.65497988 -142.5625 168.5 C-150.53337107 169.77296001 -158.6204759 169.54028749 -165.66796875 165.27734375 C-168.34958122 164.17705327 -169.83868604 164.59630471 -172.5625 165.5 C-174.60209535 166.95010743 -174.60209535 166.95010743 -176.5 168.875 C-180.24276722 172.35219133 -184.09136743 175.56144886 -188.125 178.6875 C-193.32385085 182.72892435 -198.46277184 186.83415494 -203.5625 191 C-208.62775963 195.13459446 -213.72316909 199.22375532 -218.875 203.25 C-223.82085531 207.11665949 -228.71007863 211.04260567 -233.55859375 215.03125 C-237.36277834 218.157706 -241.18017707 221.2676829 -245 224.375 C-245.68690918 224.93493652 -246.37381836 225.49487305 -247.08154297 226.07177734 C-250.19996106 228.60794696 -253.31718368 231.12618806 -256.5625 233.5 C-256.40394531 234.36238281 -256.24539063 235.22476563 -256.08203125 236.11328125 C-254.46930026 246.62634721 -255.03625308 256.4294131 -260.8828125 265.5625 C-265.8659853 271.87996497 -272.65172462 276.04969118 -280.5625 277.5 C-291.72672044 278.37562513 -299.85903238 276.6622332 -308.55078125 269.45703125 C-315.9373149 262.27129658 -317.74365369 253.98415074 -317.92578125 243.953125 C-317.40175781 238.97208498 -315.9771614 234.29368426 -314.5625 229.5 C-315.64349976 228.42685547 -315.64349976 228.42685547 -316.74633789 227.33203125 C-319.45322912 224.64342116 -322.15666099 221.95135438 -324.85913086 219.25830078 C-326.02292274 218.09949681 -327.18761549 216.94159678 -328.35327148 215.78466797 C-339.29105946 204.92664936 -339.29105946 204.92664936 -343.05859375 200.5 C-348.18332125 194.48555739 -353.94670685 189.04990955 -359.5625 183.5 C-372.3621085 170.85055451 -372.3621085 170.85055451 -377.65771484 164.62744141 C-382.31879654 159.4215114 -387.40599034 154.59702601 -392.375 149.6875 C-394.63440737 147.45472238 -396.89044419 145.21861583 -399.14453125 142.98046875 C-399.65909378 142.47420456 -400.17365631 141.96794037 -400.70381165 141.44633484 C-402.94739561 139.21826251 -404.80014256 137.14353616 -406.5625 134.5 C-407.24054688 134.7165625 -407.91859375 134.933125 -408.6171875 135.15625 C-419.49213841 138.40969792 -428.23012531 138.74352548 -438.5625 133.5 C-445.89033217 128.57739165 -451.71297143 121.24322596 -453.5625 112.5 C-454.50440324 102.6607338 -453.07117419 93.54239385 -446.8125 85.625 C-441.26754159 79.78599076 -434.31732596 75.98449648 -426.265625 75.1640625 C-415.35012333 75.04058397 -407.40037711 76.91062757 -399.3203125 84.5 C-393.54878966 91.06671043 -391.42609703 97.58252501 -391.3125 106.1875 C-391.28671875 107.34636719 -391.2609375 108.50523438 -391.234375 109.69921875 C-391.63130902 114.29703782 -392.93826497 118.20606644 -394.5625 122.5 C-385.04014144 132.85296927 -375.25235645 142.90473055 -365.24169922 152.78369141 C-361.43622145 156.55352067 -357.66405739 160.29713792 -354.1875 164.375 C-349.16213829 170.24286627 -343.55507207 175.57466432 -338.0625 181 C-331.33170852 187.64839765 -324.70124201 194.29178424 -318.5625 201.5 C-316.01146881 204.42785018 -313.40220536 207.28872174 -310.75 210.125 C-310.10224609 210.86878906 -309.45449219 211.61257812 -308.78710938 212.37890625 C-306.78716513 214.48266739 -305.10676505 216.09663935 -302.5625 217.5 C-298.98653425 217.53380386 -295.94750633 216.57143556 -292.5625 215.5 C-284.94930329 214.70445332 -278.88632522 215.64499021 -271.83984375 218.625 C-269.50237459 219.67932859 -269.50237459 219.67932859 -266.5625 219.5 C-264.80327823 218.38458936 -264.80327823 218.38458936 -263.04296875 216.82421875 C-262.35775146 216.24921631 -261.67253418 215.67421387 -260.96655273 215.08178711 C-260.23509033 214.45667236 -259.50362793 213.83155762 -258.75 213.1875 C-257.2042136 211.88932765 -255.65732425 210.59246759 -254.109375 209.296875 C-253.33916016 208.65041016 -252.56894531 208.00394531 -251.77539062 207.33789062 C-248.73075051 204.80920011 -245.62555316 202.36495084 -242.5 199.9375 C-237.46985234 196.01921114 -232.50189384 192.03208591 -227.5625 188 C-222.62308225 183.96789457 -217.65441996 179.98174458 -212.625 176.0625 C-206.52043173 171.30460549 -200.54274408 166.40132948 -194.59790039 161.44555664 C-190.0246303 157.6476224 -185.3507923 154.0229633 -180.5625 150.5 C-180.72105469 149.63890625 -180.87960937 148.7778125 -181.04296875 147.890625 C-182.64852271 137.41227284 -182.18633577 128.14895878 -176.01953125 119.28125 C-170.33013476 112.30295133 -163.54566813 107.76821197 -154.5625 106.5 C-146.65267678 105.86211103 -139.56956643 107.80361175 -132.5625 111.5 C-123.705011 104.59392655 -114.93994296 97.58479824 -106.234375 90.48828125 C-102.58708406 87.51583171 -98.91385699 84.57700432 -95.234375 81.64453125 C-92.4395181 79.40129084 -89.66056375 77.13935364 -86.8828125 74.875 C-80.59517626 69.74998329 -74.27496941 64.67580814 -67.87890625 59.68676758 C-62.42564983 55.42134147 -57.06260614 51.04710774 -51.71484375 46.65039062 C-51.07160156 46.12380859 -50.42835938 45.59722656 -49.765625 45.0546875 C-48.90952637 44.35061768 -48.90952637 44.35061768 -48.03613281 43.63232422 C-46.5625 42.5 -46.5625 42.5 -44.5625 41.5 C-44.80033203 40.22382812 -44.80033203 40.22382812 -45.04296875 38.921875 C-46.67517183 28.17142464 -46.42957355 18.28797667 -39.94921875 9.25 C-29.99397018 -2.75810471 -14.31302313 -6.64210909 0 0 Z M-27.9375 20.1875 C-30.03900352 24.47133409 -30.38704452 27.81355821 -29.5625 32.5 C-27.18707255 37.34221749 -24.31193233 39.98559465 -19.5625 42.5 C-15.19499649 43.79407511 -12.45067821 43.73514256 -8.375 41.875 C-3.87349023 39.35380557 -1.20859075 36.43827226 0.4375 31.5 C0.99751569 25.67583683 0.00892805 22.00892791 -3.5625 17.5 C-7.0986679 14.21641552 -9.84426794 13.21961741 -14.5625 13 C-20.72980828 13.27780668 -23.89213047 15.609845 -27.9375 20.1875 Z M-434.8828125 97.078125 C-437.53271499 101.19195963 -438.18994231 104.57009612 -437.5625 109.5 C-435.81622413 114.3507663 -433.13333007 118.01671353 -428.5625 120.5 C-424.14440358 121.79059089 -420.69275327 121.86950588 -416.3125 120.4375 C-412.51827892 117.76429878 -409.66378471 114.70256941 -407.5625 110.5 C-407.18868146 104.89272183 -407.37759173 101.33227462 -410.5625 96.5 C-415.1917439 92.32238965 -418.05912376 91.12816115 -424.1796875 91.2265625 C-428.71735664 91.74727863 -431.95783588 93.5819991 -434.8828125 97.078125 Z M-161.07421875 126.96875 C-164.70621756 131.21475434 -165.86884543 133.79414717 -165.77734375 139.40625 C-165.30685645 143.99136259 -163.3500653 146.78927034 -160 149.8125 C-155.27275397 153.08520879 -151.21508728 153.10874017 -145.5625 152.5 C-140.4296882 150.12369824 -137.51037521 146.73835367 -135.5625 141.5 C-134.91903494 136.26035593 -135.68231007 132.91629123 -138.5625 128.5 C-142.26957624 124.62050161 -145.25204058 122.70454706 -150.546875 122.37109375 C-154.72270039 122.63815235 -158.06869817 124.04865765 -161.07421875 126.96875 Z M-298.95703125 237.04296875 C-301.85717504 241.52128266 -302.22854816 245.25487071 -301.5625 250.5 C-298.98960499 255.45520521 -295.58016074 258.99116963 -290.5625 261.5 C-285.27695811 261.94792728 -281.6038273 261.75793085 -277.10546875 258.82421875 C-273.80562643 255.99220217 -271.99808536 252.78120993 -271.18359375 248.515625 C-270.87605387 243.39657417 -272.21229455 239.39215045 -275.5625 235.5 C-278.85458012 232.73758624 -281.75228112 231.61785002 -286 231 C-291.09193002 231.71465684 -295.42970687 233.14018688 -298.95703125 237.04296875 Z " fill="#000000" transform="translate(474.5625,2.5)"/>
<path d="M0 0 C1.16072021 -0.0038269 2.32144043 -0.00765381 3.51733398 -0.01159668 C5.95785394 -0.01430418 8.39840349 -0.00702508 10.83886719 0.00976562 C14.55209701 0.03118998 18.26339211 0.00992208 21.9765625 -0.015625 C24.35937923 -0.01298152 26.74219476 -0.00785613 29.125 0 C30.77230103 -0.01214539 30.77230103 -0.01214539 32.45288086 -0.02453613 C41.79132539 0.0878066 49.79906897 2.23135824 56.875 8.59375 C57.65488281 9.26535156 58.43476563 9.93695313 59.23828125 10.62890625 C66.16422559 19.27760649 67.29050144 27.86164165 67.19068909 38.66323853 C67.19574363 40.06463443 67.20297943 41.46602385 67.21218723 42.86739862 C67.23100748 46.69052441 67.21893444 50.51300509 67.2014643 54.33611393 C67.18803842 58.46977072 67.2035459 62.60333633 67.21528625 66.73698425 C67.23362745 74.82323673 67.22517456 82.90924693 67.20719803 90.99549176 C67.19315185 97.56839628 67.18928356 104.1412352 67.1926403 110.71415329 C67.19311775 111.65091186 67.19359519 112.58767042 67.1940871 113.55281561 C67.19511346 115.45601017 67.19616882 117.35920471 67.19725286 119.26239924 C67.20581256 136.07602287 67.18916762 152.88952978 67.15942383 169.703125 C67.130579 186.00883891 67.1235082 202.31438475 67.13891602 218.62011719 C67.15568442 236.38998915 67.15970657 254.15978139 67.14220566 271.92965543 C67.14036132 273.82509636 67.13852659 275.7205373 67.13670158 277.61597824 C67.13578949 278.54850035 67.1348774 279.48102245 67.13393768 280.44180281 C67.12833697 287.00604208 67.13163503 293.57024237 67.13824654 300.13447952 C67.14598507 308.13503321 67.13920813 316.13542158 67.1140715 324.135942 C67.10158957 328.21610279 67.09541405 332.29600637 67.10661316 336.37617683 C67.11667948 340.11425459 67.10814565 343.85182019 67.08503198 347.58983581 C67.07745849 349.57592274 67.08940211 351.56205482 67.10213572 353.54811537 C67.03511817 360.7790744 66.21832822 366.24442867 62.5625 372.53125 C62.18425963 373.18472023 61.80601925 373.83819045 61.41631705 374.51146281 C57.26222896 381.32228129 50.15563958 385.56137265 42.5625 387.53125 C38.40200162 387.84944421 34.24938941 387.85920211 30.078125 387.8671875 C28.86735291 387.8738443 27.65658081 387.8805011 26.40911865 387.88735962 C23.85056066 387.89746997 21.29197638 387.90217714 18.73339844 387.90185547 C14.84004688 387.90621913 10.94783798 387.94253246 7.0546875 387.98046875 C4.56250385 387.98633926 2.07031485 387.99030709 -0.421875 387.9921875 C-1.57637146 388.00655853 -2.73086792 388.02092957 -3.92034912 388.03573608 C-13.9152311 387.97987884 -22.19526552 385.67813099 -29.61328125 378.7265625 C-35.66463401 371.4442065 -38.55951235 363.14756478 -38.56613445 353.78741837 C-38.5693589 352.63349287 -38.57258335 351.47956738 -38.5759055 350.29067445 C-38.5743569 349.0273648 -38.5728083 347.76405514 -38.57121277 346.46246338 C-38.5730813 345.10337757 -38.57538218 343.74429231 -38.57807809 342.38520789 C-38.58419736 338.65135466 -38.58406234 334.91752381 -38.58288372 331.18366671 C-38.58267974 327.15627478 -38.58819821 323.12889004 -38.59294128 319.10150146 C-38.60124932 311.21102703 -38.6039962 303.32056007 -38.60455366 295.43008164 C-38.60502879 289.01580275 -38.6070834 282.60152633 -38.61025429 276.18724823 C-38.61906163 258.00099431 -38.62367359 239.8147463 -38.62292381 221.62849024 C-38.62288386 220.64797323 -38.6228439 219.66745621 -38.62280273 218.65722656 C-38.62276185 217.67551199 -38.62272097 216.69379742 -38.62267885 215.68233392 C-38.62227246 199.7746001 -38.63184007 183.86688995 -38.6459411 167.95916298 C-38.66030617 151.62463029 -38.6672112 135.29010915 -38.66634732 118.95556998 C-38.66601538 109.78525273 -38.66876138 100.6149603 -38.67952538 91.44464874 C-38.68863213 83.63614325 -38.69080421 75.82767382 -38.68401595 68.01916531 C-38.68075151 64.03631627 -38.68069131 60.05353642 -38.6893692 56.07069397 C-38.69723857 52.4213462 -38.69579833 48.77212243 -38.68708507 45.12277767 C-38.68482685 43.18411446 -38.69237536 41.2454474 -38.70032471 39.30679917 C-38.65295098 27.31237463 -36.89672274 18.55877345 -28.6171875 9.55078125 C-20.23428029 1.59211024 -11.25156914 -0.08295669 0 0 Z M-20.4375 24.53125 C-22.06455325 28.58740729 -22.68815232 32.00208146 -22.69197559 36.35686398 C-22.69780779 37.50356373 -22.70363998 38.65026348 -22.70964891 39.83171171 C-22.70586958 41.08179992 -22.70209026 42.33188812 -22.69819641 43.61985779 C-22.70121827 44.96885914 -22.70510793 46.31785878 -22.70978898 47.66685539 C-22.72007324 51.36812923 -22.71788608 55.06930625 -22.71360838 58.77058804 C-22.71114195 62.76452945 -22.72015426 66.75844751 -22.72764587 70.75238037 C-22.74039697 78.5745426 -22.74218607 86.3966705 -22.73984561 94.21884137 C-22.73806284 100.57638481 -22.73981121 106.93391784 -22.74407005 113.29146004 C-22.74466524 114.19616916 -22.74526043 115.10087829 -22.74587366 116.03300284 C-22.7470854 117.87089252 -22.74829954 119.7087822 -22.74951603 121.54667187 C-22.76039304 138.78326049 -22.75822825 156.01982953 -22.75213119 173.25641925 C-22.74696123 189.02642479 -22.75821925 204.79636857 -22.77722941 220.5663619 C-22.7965989 236.75853919 -22.80486541 252.95068725 -22.80110615 269.14287621 C-22.79919284 278.23375961 -22.80169438 287.32459044 -22.81582069 296.4154644 C-22.82772409 304.15411796 -22.82915105 311.89268657 -22.81703053 319.63134127 C-22.81113466 323.57954991 -22.81006189 327.52760311 -22.82203293 331.47580147 C-22.83286735 335.09113764 -22.8298177 338.70618813 -22.81577124 342.3215108 C-22.81186184 344.24669452 -22.82269131 346.17189081 -22.83406812 348.09704489 C-22.78522334 355.88686421 -22.16940152 360.99584804 -17.3125 367.28125 C-11.03650359 372.19289936 -3.88516815 372.98857431 3.875 372.9296875 C4.72876221 372.93255768 5.58252441 372.93542786 6.4621582 372.93838501 C8.2537503 372.94041179 10.04536524 372.93497982 11.83691406 372.92236328 C14.55584906 372.90628932 17.27329791 372.92225914 19.9921875 372.94140625 C21.7447949 372.93942357 23.49740138 372.93557939 25.25 372.9296875 C26.05026611 372.93576019 26.85053223 372.94183289 27.67504883 372.9480896 C34.57308757 372.86349475 40.82255766 371.55642478 46.4375 367.40625 C52.06078822 359.79827182 51.99196402 351.42677184 51.9367218 342.27842712 C51.94268341 340.30300339 51.94268341 340.30300339 51.94876546 338.2876721 C51.95930485 334.65205826 51.95125438 331.01669199 51.94001496 327.38108909 C51.93114472 323.45262163 51.93962457 319.52418558 51.94587708 315.59571838 C51.95535043 307.90796104 51.9487782 300.22029776 51.93661413 292.53254741 C51.92297232 283.57623628 51.9246339 274.6199474 51.92674746 265.66362853 C51.92993517 249.68190169 51.91828185 233.70021947 51.89868164 217.71850586 C51.87967525 202.21686444 51.87259521 186.71527529 51.87817383 171.21362305 C51.88423377 154.32458591 51.88405084 137.43557174 51.872688 120.54653651 C51.87148073 118.74516682 51.87027474 116.94379713 51.86907005 115.14242744 C51.86846651 114.25616452 51.86786298 113.3699016 51.86724115 112.45678223 C51.8633646 106.21621559 51.86375459 99.97565752 51.8656559 93.73509026 C51.86777958 86.12903045 51.86254052 78.52301639 51.84804235 70.91696947 C51.84080675 67.03751006 51.83671422 63.15811722 51.84128571 59.27865219 C51.84612282 55.07139894 51.83543232 50.86432745 51.82319641 46.65708923 C51.82697573 45.43364569 51.83075506 44.21020215 51.83464891 42.94968456 C51.91677419 31.50891716 51.91677419 31.50891716 46.75 21.65625 C46.02876953 20.82480469 46.02876953 20.82480469 45.29296875 19.9765625 C41.80810903 17.06595732 38.13789281 16.2815113 33.68383789 16.2565918 C32.7425856 16.24705978 31.80133331 16.23752777 30.83155823 16.22770691 C29.82624557 16.22861832 28.82093292 16.22952972 27.78515625 16.23046875 C26.21899818 16.22404106 26.21899818 16.22404106 24.62120056 16.21748352 C22.4165011 16.21174917 20.21178272 16.21123336 18.00708008 16.21557617 C14.64045838 16.21873549 11.27471622 16.19526731 7.90820312 16.16992188 C5.76302194 16.16764868 3.6178384 16.16694548 1.47265625 16.16796875 C0.46936783 16.158759 -0.53392059 16.14954926 -1.56761169 16.14006042 C-9.78782113 16.19427656 -15.00519371 18.04266193 -20.4375 24.53125 Z " fill="#000000" transform="translate(445.4375,124.46875)"/>
<path d="M0 0 C0.98517609 -0.01283524 1.97035217 -0.02567047 2.98538208 -0.03889465 C4.0406308 -0.04628159 5.09587952 -0.05366852 6.18310547 -0.0612793 C7.28194061 -0.06935104 8.38077576 -0.07742279 9.51290894 -0.08573914 C11.83785436 -0.09955394 14.16281984 -0.1102877 16.48779297 -0.11816406 C18.85211174 -0.12966808 21.21640486 -0.15009461 23.58056641 -0.1796875 C27.01075759 -0.22260085 30.44017832 -0.23856755 33.87060547 -0.2487793 C34.9137088 -0.26628738 35.95681213 -0.28379547 37.03152466 -0.30183411 C48.28599977 -0.26904247 56.74037932 2.98279476 64.82763672 10.8137207 C72.23192461 19.1556093 73.22701426 29.27929582 73.18598938 40.01828003 C73.1917277 41.62278572 73.1917277 41.62278572 73.19758195 43.25970566 C73.20787375 46.83228588 73.20392701 50.40470423 73.19995117 53.97729492 C73.20429975 56.54349923 73.20948339 59.10970224 73.21543884 61.67590332 C73.22816504 67.91595887 73.22998213 74.15597134 73.22763858 80.39603768 C73.22585291 85.47013681 73.22761039 90.5442229 73.23186302 95.61832047 C73.23245821 96.34149396 73.2330534 97.06466746 73.23366662 97.8097553 C73.23487842 99.27905972 73.23609256 100.74836414 73.237309 102.21766855 C73.24817655 115.98591564 73.24602578 129.75413822 73.23992416 143.52238669 C73.23475583 156.10548036 73.24600961 168.6884966 73.26502237 181.27157496 C73.28441552 194.20600578 73.29265418 207.14039999 73.28889912 220.07484543 C73.2869893 227.33088678 73.28945324 234.58686224 73.30361366 241.84289169 C73.31679692 248.66701169 73.3142474 255.4909744 73.30120277 262.31509399 C73.29883754 264.81681496 73.30156974 267.31854682 73.3098259 269.82025528 C73.32029915 273.24093497 73.31218742 276.66109534 73.29951477 280.08175659 C73.3105762 281.55902121 73.3105762 281.55902121 73.32186109 283.06612957 C73.24193259 293.35452886 70.64562913 302.25823112 63.92529297 310.17700195 C55.36119694 318.29782179 46.62768597 319.6396044 35.21044922 319.6105957 C34.00013535 319.61583755 32.78982147 319.62107941 31.54283142 319.6264801 C28.99202234 319.63288243 26.44118368 319.63158661 23.89038086 319.62304688 C20.00369328 319.61453677 16.11847628 319.64332697 12.23193359 319.67504883 C9.74560591 319.67666111 7.25927563 319.6760828 4.77294922 319.6730957 C3.61956558 319.68432968 2.46618195 319.69556366 1.27784729 319.70713806 C-8.38479543 319.62433179 -16.93179768 316.94396871 -24.07470703 310.17700195 C-30.43911473 302.25815366 -32.38562851 295.30574698 -32.37548828 285.2902832 C-32.37977341 284.35145798 -32.38405853 283.41263275 -32.38847351 282.44535828 C-32.39419658 280.46943975 -32.39473205 278.49350015 -32.39038086 276.51757812 C-32.38720648 273.488978 -32.41075487 270.46134187 -32.43603516 267.43286133 C-32.43830685 265.51033652 -32.43901225 263.58780908 -32.43798828 261.6652832 C-32.44719803 260.75901688 -32.45640778 259.85275055 -32.46589661 258.91902161 C-32.45966782 258.07772202 -32.45343903 257.23642242 -32.44702148 256.36962891 C-32.44765091 255.63049759 -32.44828033 254.89136627 -32.44892883 254.12983704 C-31.9623719 251.5907935 -31.113514 250.73028673 -29.07470703 249.17700195 C-25.59094662 248.35356767 -23.12387045 247.81807763 -19.69970703 248.98950195 C-18.07470703 250.17700195 -18.07470703 250.17700195 -17.07470703 252.17700195 C-16.95421553 254.69594587 -16.88907903 257.19197817 -16.86376953 259.7121582 C-16.83567185 261.25969429 -16.80700725 262.80722018 -16.77783203 264.35473633 C-16.73680279 266.78791701 -16.69991 269.22091311 -16.67333984 271.65429688 C-16.54349992 284.19644126 -16.54349992 284.19644126 -13.07470703 296.17700195 C-12.74470703 297.16700195 -12.41470703 298.15700195 -12.07470703 299.17700195 C-5.97384323 303.32558934 2.03111135 303.48582765 9.14013672 303.4777832 C9.99531387 303.48206833 10.85049103 303.48635345 11.73158264 303.49076843 C13.52913533 303.49647729 15.32671111 303.49703761 17.12426758 303.49267578 C19.8519687 303.4895145 22.57858475 303.5130225 25.30615234 303.53833008 C27.06331245 303.54060353 28.82047544 303.54130635 30.57763672 303.5402832 C31.78274147 303.55409782 31.78274147 303.55409782 33.01219177 303.56819153 C40.00215597 303.51196345 46.2928969 302.24931375 51.86279297 297.86450195 C56.41634746 291.93108247 56.21524244 285.8386273 56.19271851 278.67666626 C56.19951518 277.09098313 56.19951518 277.09098313 56.20644915 275.47326601 C56.21910873 271.93127026 56.21747176 268.38942797 56.21582031 264.84741211 C56.22180453 262.30781354 56.22860983 259.76821679 56.23617554 257.22862244 C56.25201634 251.046447 56.25828433 244.86432776 56.25940029 238.68213393 C56.26035144 233.65611941 56.26446508 228.63011745 56.27080154 223.6041069 C56.28840881 209.34765487 56.29764111 195.09123291 56.2961406 180.83476992 C56.29602073 179.68256345 56.29602073 179.68256345 56.29589844 178.50708008 C56.2957758 177.35346348 56.2957758 177.35346348 56.29565068 176.17654149 C56.29483771 163.71157927 56.31397938 151.24673787 56.34217517 138.7818106 C56.37091242 125.97627288 56.38471503 113.17079407 56.38298762 100.36522329 C56.38232405 93.17849522 56.38780176 85.99189385 56.40934372 78.80519485 C56.42947265 72.04672777 56.42887331 65.28857258 56.41431046 58.53007698 C56.41221719 56.05009 56.41695392 53.5700864 56.42903137 51.09012794 C56.44445557 47.70353812 56.43519329 44.31787466 56.41976929 40.93130493 C56.43005641 39.95094477 56.44034354 38.97058461 56.4509424 37.96051657 C56.38978379 31.88010745 55.41217233 27.24417813 51.92529297 22.17700195 C47.93900872 18.3851706 44.83976024 17.06662558 39.3972168 17 C38.48228958 16.98716476 37.56736237 16.97432953 36.62471008 16.96110535 C35.63722275 16.95371841 34.64973541 16.94633148 33.63232422 16.9387207 C32.61232834 16.93064896 31.59233246 16.92257721 30.54142761 16.91426086 C28.38025611 16.90042512 26.21906281 16.88970069 24.05786133 16.88183594 C20.76780198 16.86465863 17.47875686 16.82077127 14.18896484 16.77661133 C12.08675867 16.76648091 9.98454398 16.7579659 7.88232422 16.7512207 C6.41627495 16.72495857 6.41627495 16.72495857 4.92060852 16.69816589 C-1.21330747 16.71744753 -5.99909713 17.56450209 -11.07470703 21.17700195 C-16.15237219 27.16604291 -16.22439835 33.26665381 -16.21273804 40.82572937 C-16.21555932 41.5760293 -16.2183806 42.32632924 -16.22128737 43.09936553 C-16.22959205 45.60271263 -16.23096802 48.10601528 -16.23242188 50.609375 C-16.23709287 52.40832645 -16.24223691 54.20727673 -16.24781799 56.00622559 C-16.25907658 59.87432939 -16.26752127 63.74242558 -16.27393723 67.61054039 C-16.28462992 73.72377254 -16.30487557 79.83694962 -16.32705688 85.95014954 C-16.38894693 103.33148696 -16.4430662 120.71282019 -16.47607422 138.09423828 C-16.49439223 147.69812194 -16.52328614 157.30191246 -16.56407893 166.90572768 C-16.58518405 171.98795874 -16.60061127 177.07007228 -16.6028862 182.15234947 C-16.60502622 186.92699797 -16.62082896 191.70140117 -16.64727592 196.47597504 C-16.6544932 198.23078117 -16.6565582 199.98561694 -16.65317345 201.74043465 C-16.64929895 204.13032508 -16.66366629 206.51942411 -16.68270874 208.90922546 C-16.67717904 209.60843776 -16.67164935 210.30765005 -16.66595209 211.0280506 C-16.70468781 213.8313328 -16.7706517 215.73508781 -18.38436317 218.08045673 C-21.17537022 219.89101464 -23.80304679 220.00480931 -27.07470703 220.17700195 C-29.87042205 219.22057313 -30.75120192 218.82401217 -32.07470703 216.17700195 C-32.18319622 213.68521629 -32.23132448 211.22070487 -32.2353363 208.72817993 C-32.24042412 207.95089582 -32.24551194 207.17361171 -32.25075394 206.37277353 C-32.26651946 203.75364447 -32.27501447 201.13454308 -32.28344727 198.51538086 C-32.29298285 196.64295271 -32.30287388 194.77052634 -32.31309509 192.89810181 C-32.34452922 186.73327741 -32.36475969 180.56843935 -32.38330078 174.40356445 C-32.3865981 173.35449653 -32.38989542 172.30542861 -32.39329267 171.22457075 C-32.42408777 161.32752988 -32.45079372 151.430486 -32.46771145 141.53341103 C-32.48959331 128.88042696 -32.53149842 116.22786864 -32.60114902 103.57505476 C-32.64846531 94.67638915 -32.67265564 85.77783805 -32.67990834 76.87905061 C-32.68485519 71.56657798 -32.69984313 66.2545847 -32.73965263 60.9422493 C-32.77666446 55.93688145 -32.78488103 50.93226377 -32.7716465 45.92678452 C-32.77170022 44.09670249 -32.78190135 42.26658602 -32.80339813 40.43663025 C-32.93468957 28.62136965 -32.21897718 18.87952141 -23.79910946 9.69465065 C-16.87938072 3.0365959 -9.60399227 0.10971405 0 0 Z " fill="#000000" transform="translate(32.07470703125,192.822998046875)"/>
<path d="M0 0 C0.92834152 -0.00960754 1.85668304 -0.01921509 2.81315613 -0.02911377 C4.30230278 -0.03548859 4.30230278 -0.03548859 5.8215332 -0.04199219 C6.85615189 -0.04769226 7.89077057 -0.05339233 8.95674133 -0.05926514 C11.14465315 -0.0686985 13.33257906 -0.0752425 15.52050781 -0.07910156 C18.84311187 -0.0887821 22.16509045 -0.1198116 25.48754883 -0.15136719 C27.61970664 -0.15790051 29.75186885 -0.16314969 31.8840332 -0.16699219 C32.86667648 -0.17933899 33.84931976 -0.19168579 34.86174011 -0.20440674 C45.240375 -0.17141529 54.19660115 2.36656057 62.18481445 9.16113281 C70.95669453 18.58420049 72.36315107 28.87890847 72.37231445 41.28613281 C72.38456055 42.1665625 72.39680664 43.04699219 72.40942383 43.95410156 C72.41954439 48.42739038 72.41509892 52.14662077 70.18481445 56.16113281 C67.52507875 58.32832487 66.09643849 58.15648145 62.62231445 57.97363281 C59.14441697 57.15158432 58.24211627 56.90828309 56.18481445 54.16113281 C55.78417969 51.91210938 55.78417969 51.91210938 55.7434082 49.30175781 C55.70376953 47.87476563 55.70376953 47.87476563 55.66333008 46.41894531 C55.64979492 45.42636719 55.63625977 44.43378906 55.62231445 43.41113281 C55.50303884 32.46693277 55.50303884 32.46693277 51.55981445 22.41113281 C45.69921429 16.85898529 38.48434492 16.70309512 30.84106445 16.72753906 C29.8725354 16.72229721 28.90400635 16.71705536 27.90612793 16.71165466 C25.86898757 16.70526321 23.83181016 16.70653394 21.79467773 16.71508789 C18.69358168 16.72360872 15.59432331 16.69477807 12.4934082 16.66308594 C10.5051275 16.66147383 8.51684357 16.66205164 6.52856445 16.66503906 C5.6106311 16.65380508 4.69269775 16.64257111 3.74694824 16.6309967 C-2.20256477 16.69481783 -6.89190547 17.67405607 -11.81518555 21.16113281 C-15.50400841 25.70122249 -16.93620532 29.44600515 -16.94661331 35.21014881 C-16.95045446 36.0114937 -16.9542956 36.81283859 -16.95825315 37.63846666 C-16.95738666 38.51306761 -16.95652018 39.38766857 -16.95562744 40.28877258 C-16.95859856 41.22238481 -16.96156969 42.15599704 -16.96463084 43.11790055 C-16.97331914 46.25382098 -16.9748262 49.38970324 -16.97631836 52.52563477 C-16.98094641 54.77099692 -16.98597105 57.0163583 -16.99136353 59.26171875 C-17.00449004 65.36712878 -17.01093288 71.47252782 -17.01537418 77.57794976 C-17.01830425 81.39121858 -17.02240891 85.20448439 -17.02687836 89.01775169 C-17.03898655 99.57871659 -17.04936904 110.13967886 -17.05275345 120.70065022 C-17.05297301 121.37633177 -17.05319258 122.05201333 -17.0534188 122.74817009 C-17.05363708 123.42545256 -17.05385536 124.10273504 -17.05408025 124.80054122 C-17.05452371 126.17293569 -17.05497027 127.54533015 -17.05541992 128.91772461 C-17.05564135 129.59847721 -17.05586278 130.27922982 -17.05609092 130.98061129 C-17.0600388 142.01078596 -17.07749335 153.04089456 -17.10077944 164.07104371 C-17.12450217 175.39958347 -17.13669779 186.72807893 -17.13812137 198.05664796 C-17.13917022 204.41560977 -17.14509531 210.77447837 -17.16294098 217.13341713 C-17.17939979 223.11453507 -17.18158773 229.09548951 -17.17280197 235.07662201 C-17.17203045 237.27160517 -17.1763894 239.46659705 -17.18626022 241.66155815 C-17.19894808 244.65874813 -17.19311988 247.65535626 -17.18267822 250.65254211 C-17.19073463 251.5204509 -17.19879103 252.3883597 -17.20709157 253.28256875 C-17.15255614 259.97898387 -15.82001647 264.58349306 -11.62768555 269.97363281 C-5.80580678 274.50176074 1.30381997 274.46994359 8.3996582 274.46191406 C9.25483536 274.46619919 10.11001251 274.47048431 10.99110413 274.47489929 C12.78865682 274.48060815 14.5862326 274.48116847 16.38378906 274.47680664 C19.11149018 274.47364536 21.83810623 274.49715336 24.56567383 274.52246094 C26.32283394 274.52473439 28.07999692 274.52543721 29.8371582 274.52441406 C31.04226295 274.53822868 31.04226295 274.53822868 32.27171326 274.55232239 C39.24747865 274.49620852 45.51211973 273.20830324 51.12231445 268.91113281 C54.98419352 263.76196072 55.43457631 258.25476067 55.42964172 251.96833801 C55.4319063 251.27914251 55.43417087 250.589947 55.43650407 249.87986678 C55.44176699 247.58916722 55.43299613 245.29874243 55.42431641 243.00805664 C55.42543016 241.35836196 55.42748933 239.70866768 55.43041992 238.05897522 C55.43513088 234.51608377 55.43403394 230.97325867 55.42864418 227.43036842 C55.42102351 221.82923746 55.43170083 216.22823388 55.44584656 210.62712097 C55.48355944 194.70331293 55.50175317 178.77956362 55.49023438 162.85571289 C55.48402435 154.05383319 55.49556163 145.25215981 55.52667969 136.45033091 C55.54535974 130.88072092 55.54199243 125.31169422 55.52251208 119.74209368 C55.51564271 116.28158713 55.52956191 112.82139885 55.54946136 109.36095238 C55.55451876 107.75491065 55.55099763 106.14881588 55.53832817 104.54281616 C55.52227187 102.35208143 55.53681186 100.16360861 55.55903625 97.97297668 C55.55928787 96.13381038 55.55928787 96.13381038 55.55954456 94.2574892 C56.18481445 91.16113281 56.18481445 91.16113281 58.49736309 88.73148632 C61.18481445 87.16113281 61.18481445 87.16113281 64.80981445 87.22363281 C69.3276716 88.47859313 69.3276716 88.47859313 71.18481445 91.16113281 C72.3183119 94.56162515 72.31640814 97.15649757 72.32525635 100.7431488 C72.32822747 101.41511498 72.33119859 102.08708116 72.33425975 102.77940995 C72.34294655 105.03613936 72.34445502 107.29281573 72.34594727 109.54956055 C72.35057572 111.16598117 72.35560042 112.78240071 72.36099243 114.39881897 C72.37412204 118.79600061 72.38056332 123.19316698 72.38500309 127.59036517 C72.38793493 130.340484 72.39204011 133.09059867 72.39650726 135.84071541 C72.41018812 144.453117 72.41985001 153.06550906 72.42370915 161.67792076 C72.42818146 171.60352974 72.44568834 181.52900042 72.47470975 191.45456737 C72.49638127 199.13458486 72.50641647 206.81456361 72.50775027 214.49461132 C72.50879505 219.07697653 72.51463202 223.65921185 72.53256989 228.24154472 C72.54914372 232.55979205 72.55116126 236.87781321 72.54243088 241.19608116 C72.54166527 242.77296813 72.54593972 244.34986771 72.55588913 245.92672348 C72.63202172 258.75529441 72.02151677 271.10763852 63.18481445 281.16113281 C54.60819882 289.2583103 45.92595857 290.6238234 34.50512695 290.59472656 C33.29718475 290.59996841 32.08924255 290.60521027 30.84469604 290.61061096 C28.29808315 290.61701372 25.75144061 290.61571691 23.20483398 290.60717773 C19.32912985 290.59867519 15.45490426 290.62744508 11.5793457 290.65917969 C9.09627322 290.66079219 6.61319816 290.66021323 4.13012695 290.65722656 C2.9819046 290.66846054 1.83368225 290.67969452 0.65066528 290.69126892 C-8.80555646 290.61022603 -17.16128377 288.60787987 -24.2175293 281.98535156 C-32.23097175 272.83552851 -34.13006769 263.19999147 -34.06915283 251.36975098 C-34.07227281 250.42511065 -34.07539279 249.48047032 -34.07860732 248.50720453 C-34.08654042 245.36378771 -34.08028201 242.22056646 -34.07397461 239.07714844 C-34.07668655 236.81458931 -34.08024862 234.55203107 -34.08459473 232.28947449 C-34.09369678 226.15941126 -34.09018345 220.0294155 -34.08383656 213.89935112 C-34.07876528 207.47737321 -34.08347115 201.05540099 -34.08660889 194.63342285 C-34.09047801 183.15955443 -34.08427127 171.68572331 -34.07409021 160.21186119 C-34.06515545 149.82107589 -34.06670772 139.43033528 -34.07592773 129.03955078 C-34.08664497 116.95586107 -34.09060723 104.87220509 -34.08470321 92.78850889 C-34.0815887 86.3982864 -34.08115993 80.00809465 -34.08777618 73.61787415 C-34.09356267 67.60961665 -34.0895288 61.60144338 -34.07798767 55.59319496 C-34.07534807 53.39099072 -34.07609419 51.18877937 -34.080513 48.98657799 C-34.08599749 45.97512854 -34.07909907 42.96394714 -34.06915283 39.95251465 C-34.07361428 39.08606024 -34.07807572 38.21960584 -34.08267236 37.32689524 C-34.01372954 26.52665482 -31.51950389 17.53413919 -24.18237305 9.33691406 C-17.45857394 3.12912744 -9.09196479 0.076505 0 0 Z " fill="#000000" transform="translate(304.815185546875,221.8388671875)"/>
<path d="M0 0 C1.50790855 -0.01925285 1.50790855 -0.01925285 3.04627991 -0.03889465 C4.12856369 -0.04628159 5.21084747 -0.05366852 6.32592773 -0.0612793 C7.44837387 -0.06935104 8.57082001 -0.07742279 9.72727966 -0.08573914 C12.10528017 -0.09956826 14.48330043 -0.11029565 16.86132812 -0.11816406 C19.28098407 -0.12966079 21.70061513 -0.15007563 24.12011719 -0.1796875 C27.62639511 -0.22259608 31.13191902 -0.23856818 34.63842773 -0.2487793 C35.7065419 -0.26628738 36.77465607 -0.28379547 37.87513733 -0.30183411 C48.08707139 -0.2727534 56.78008424 2.11756278 64.23217773 9.34106445 C64.79807617 9.94692383 65.36397461 10.5527832 65.94702148 11.17700195 C66.68758789 11.96204102 66.68758789 11.96204102 67.44311523 12.76293945 C74.61204656 21.48478469 74.38370045 33.73313863 74.31933594 44.43164062 C74.32177058 45.81780774 74.32549638 47.20397308 74.33039856 48.59013367 C74.33971668 52.31727713 74.33046099 56.0441538 74.31706643 59.77127624 C74.30565766 63.69080446 74.30986649 67.61032136 74.31181335 71.52986145 C74.31269306 78.10556337 74.30168134 84.68116156 74.28320312 91.25683594 C74.26201403 98.84024692 74.25853321 106.42350641 74.26476508 114.00694102 C74.27047407 121.33148888 74.26479673 128.65598384 74.25359154 135.98052406 C74.24896853 139.08515726 74.24806164 142.18975786 74.25017738 145.29439354 C74.25207135 148.95284096 74.24387191 152.61113579 74.22811699 156.26954842 C74.22190421 158.23936122 74.22536429 160.20919722 74.22918701 162.17901611 C74.16355988 173.20059533 72.86372672 182.25459968 65.94702148 191.17700195 C57.05239685 199.94009794 48.32633753 201.64132432 36.23217773 201.6105957 C35.02186386 201.61583755 33.81154999 201.62107941 32.56455994 201.6264801 C30.01375086 201.63288243 27.46291219 201.63158661 24.91210938 201.62304688 C21.02542179 201.61453677 17.1402048 201.64332697 13.25366211 201.67504883 C10.76733442 201.67666111 8.28100415 201.6760828 5.79467773 201.6730957 C4.6412941 201.68432968 3.48791046 201.69556366 2.29957581 201.70713806 C-4.71705636 201.6470074 -9.92382089 200.63643555 -16.05297852 197.17700195 C-17.24987305 196.50797852 -17.24987305 196.50797852 -18.47094727 195.82543945 C-26.15761639 190.29375262 -29.87310552 183.31101625 -31.63362885 174.14996338 C-32.42126125 168.5660774 -32.32989221 162.97833476 -32.31176758 157.34887695 C-32.31448355 155.98433242 -32.31804787 154.61978936 -32.3223877 153.25524902 C-32.33144193 149.57756396 -32.32799646 145.89999213 -32.32162952 142.2223053 C-32.3165332 138.35661535 -32.32127101 134.4909345 -32.32440186 130.62524414 C-32.32803098 124.13596879 -32.32327016 117.6467391 -32.3137207 111.1574707 C-32.30283818 103.67637344 -32.30636451 96.19538524 -32.31737351 88.71429062 C-32.32647652 82.26811674 -32.32771698 75.82197551 -32.32249618 69.37579727 C-32.319393 65.53587306 -32.31892135 61.69599995 -32.32556915 57.8560791 C-32.33138602 54.24445034 -32.32726713 50.63296091 -32.31578064 47.02134705 C-32.31191488 45.07913398 -32.3177825 43.136909 -32.32403564 41.19470215 C-32.2650618 28.88391156 -30.98711045 18.21711032 -22.36547852 8.92700195 C-16.11542273 2.9806872 -8.57241399 0.09570978 0 0 Z M-11.80297852 21.98950195 C-15.25009685 26.87291959 -16.30161558 31.19375826 -16.31367493 37.12167358 C-16.32075974 38.2879277 -16.32784454 39.45418182 -16.33514404 40.65577698 C-16.33266663 41.92138962 -16.33018921 43.18700226 -16.32763672 44.4909668 C-16.33198785 45.84831522 -16.33717234 47.20566119 -16.34312439 48.56300354 C-16.35648334 52.23871582 -16.35709647 55.91432508 -16.35456109 59.5900569 C-16.35348915 62.6639633 -16.35838051 65.73784904 -16.36316651 68.81175101 C-16.37425122 76.06698067 -16.37470511 83.32215855 -16.36865234 90.57739258 C-16.36261433 98.04939385 -16.37492147 105.52120673 -16.39622241 112.99317586 C-16.41386596 119.41970782 -16.41983539 125.84617997 -16.41658467 132.27273524 C-16.41477586 136.10598222 -16.41736751 139.93909485 -16.43129921 143.77231979 C-16.4439177 147.37901218 -16.44189581 150.98541201 -16.42888832 154.59210014 C-16.42541289 156.53713119 -16.43667119 158.48217135 -16.44845581 160.4271698 C-16.40083002 168.38409625 -15.85892371 174.46325096 -10.92797852 180.98950195 C-4.59906034 185.80498317 2.50403941 186.6342907 10.25952148 186.57543945 C11.11328369 186.57830963 11.9670459 186.58117981 12.84667969 186.58413696 C14.63827179 186.58616374 16.42988672 186.58073178 18.22143555 186.56811523 C20.94037055 186.55204127 23.65781939 186.56801109 26.37670898 186.5871582 C28.12931638 186.58517552 29.88192287 186.58133134 31.63452148 186.57543945 C32.4347876 186.58151215 33.23505371 186.58758484 34.05957031 186.59384155 C40.98233575 186.50894347 47.29139142 185.25532113 52.82202148 180.92700195 C58.56086158 173.50026771 58.37874961 166.77411925 58.33520508 157.65771484 C58.3392751 156.29036542 58.34461939 154.92301928 58.35113525 153.55567932 C58.36476495 149.85724487 58.35952799 146.15906262 58.349998 142.46062398 C58.34237723 138.58063047 58.34945385 134.70065786 58.35415649 130.82066345 C58.35960768 124.305045 58.35243989 117.78952871 58.33813477 111.27392578 C58.32181629 103.7547467 58.32709341 96.23581178 58.34361398 88.71663862 C58.35725525 82.24761501 58.35913543 75.77866465 58.35129797 69.30963129 C58.34663505 65.45181845 58.34595825 61.59412013 58.35590744 57.73631477 C58.36461316 54.10743168 58.35849002 50.47886136 58.34122467 46.85001183 C58.33540547 44.89307452 58.34424502 42.93611057 58.35360718 40.97918701 C58.30095893 33.64243482 58.14109547 27.00263148 53.22827148 21.1184082 C52.34655273 20.43584961 52.34655273 20.43584961 51.44702148 19.73950195 C50.56530273 19.02987305 50.56530273 19.02987305 49.66577148 18.3059082 C46.57669197 16.27694461 43.88414224 16.04546477 40.29541016 16.01586914 C38.88330513 16.00145782 38.88330513 16.00145782 37.44267273 15.98675537 C36.42703751 15.98250549 35.41140228 15.97825562 34.36499023 15.97387695 C32.79458733 15.96532684 32.79458733 15.96532684 31.19245911 15.956604 C28.97580984 15.94715429 26.75914653 15.94062014 24.54248047 15.93676758 C21.15819658 15.92706979 17.774522 15.89604882 14.39038086 15.86450195 C12.23608759 15.85797097 10.08178998 15.85272087 7.92749023 15.84887695 C6.9179277 15.83653015 5.90836517 15.82418335 4.86820984 15.8114624 C-2.23274848 15.83387441 -6.66478902 16.73453543 -11.80297852 21.98950195 Z " fill="#000000" transform="translate(167.052978515625,310.822998046875)"/>
</svg>
