<?xml version="1.0" encoding="UTF-8"?>
<svg version="1.1" xmlns="http://www.w3.org/2000/svg" width="512" height="512">
<path d="M0 0 C4.55618282 3.22602206 8.63061693 6.35129482 10 12 C11.11375 11.67 12.2275 11.34 13.375 11 C24.14144497 8.38880597 32.59307035 10.73609244 42.3125 15.6875 C46.77523402 19.52752694 50.13474402 24.40423205 52 30 C52.098439 31.72286815 52.1392628 33.44928204 52.14717102 35.17494202 C52.15790398 36.78286873 52.15790398 36.78286873 52.16885376 38.42327881 C52.17154266 39.59981018 52.17423157 40.77634155 52.17700195 41.98852539 C52.18357315 43.22801437 52.19014435 44.46750336 52.19691467 45.74455261 C52.21668153 49.86225628 52.22832938 53.97992083 52.23828125 58.09765625 C52.24233123 59.5209041 52.24644822 60.94415175 52.25063133 62.36739922 C52.26969738 69.06725108 52.28391544 75.76709195 52.2922433 82.46696573 C52.30196788 90.16146567 52.32815483 97.85567425 52.36874419 105.55007178 C52.39912665 111.51809469 52.4137336 117.48603531 52.41702431 123.45413393 C52.41935328 127.00724911 52.42802436 130.56005371 52.45348549 134.11308479 C52.71540355 172.66036285 39.72852324 199.38305264 20.60791016 232.21679688 C18.86632646 235.23138147 17.15684716 238.26293775 15.44921875 241.296875 C14.23732732 243.42728142 13.02509414 245.55749347 11.8125 247.6875 C11.26674316 248.66710693 10.72098633 249.64671387 10.15869141 250.65600586 C2.20351387 264.51536119 -8.86134161 275.35529744 -23.0625 282.625 C-24.98751849 283.63974359 -26.91062366 284.6581232 -28.83203125 285.6796875 C-29.83057129 286.21045898 -30.82911133 286.74123047 -31.85791016 287.28808594 C-38.47432193 290.89292505 -44.93495086 294.77414969 -51.40649414 298.63134766 C-52.37063232 299.20159668 -53.33477051 299.7718457 -54.328125 300.359375 C-55.1830957 300.86952148 -56.03806641 301.37966797 -56.91894531 301.90527344 C-59 303 -59 303 -61 303 C-60.99555878 303.6882486 -60.99111755 304.37649719 -60.98654175 305.08560181 C-60.94225813 312.2557772 -60.91211256 319.42591366 -60.89013672 326.59619141 C-60.88121665 329.27139966 -60.86644363 331.94639389 -60.84912109 334.62158203 C-60.82483299 338.46910308 -60.81350755 342.31647872 -60.8046875 346.1640625 C-60.79436493 347.35802643 -60.78404236 348.55199036 -60.77340698 349.78213501 C-60.77325592 350.90284393 -60.77310486 352.02355286 -60.77294922 353.17822266 C-60.768508 354.15973297 -60.76406677 355.14124329 -60.75949097 356.15249634 C-61.11971237 360.4173331 -62.20028314 363.69540945 -64.43605042 367.34265137 C-68.66883703 370.07874382 -73.09362702 369.55514634 -78.02319336 369.51757812 C-79.7091436 369.52809204 -79.7091436 369.52809204 -81.42915344 369.53881836 C-85.14963386 369.55644301 -88.8693554 369.54475817 -92.58984375 369.53125 C-95.17289883 369.5339438 -97.75595292 369.53782528 -100.33900452 369.54284668 C-105.75532609 369.54874799 -111.17136194 369.54053989 -116.58764648 369.52148438 C-122.84417064 369.49972652 -129.10017316 369.50675902 -135.35668463 369.52879 C-141.38061458 369.54915088 -147.40428994 369.54696785 -153.42825508 369.53526306 C-155.98913203 369.53259309 -158.55002228 369.53587498 -161.11088371 369.54518127 C-164.69008578 369.55533236 -168.2682848 369.53986352 -171.84741211 369.51757812 C-172.90783722 369.52567505 -173.96826233 369.53377197 -175.06082153 369.54211426 C-182.24538167 369.45918117 -182.24538167 369.45918117 -186.13453674 367.09265137 C-188.94769313 363.93689071 -189.12776618 362.19677327 -189.14717102 358.05679321 C-189.15432632 357.01120239 -189.16148163 355.96561157 -189.16885376 354.88833618 C-189.17154266 353.73618622 -189.17423157 352.58403625 -189.17700195 351.39697266 C-189.18357315 350.18700623 -189.19014435 348.97703979 -189.19691467 347.73040771 C-189.21669438 343.70829016 -189.22832639 339.68621261 -189.23828125 335.6640625 C-189.24232966 334.27689977 -189.24644661 332.88973724 -189.25063133 331.50257492 C-189.26969589 324.9778631 -189.28391798 318.45316262 -189.2922433 311.92842829 C-189.30198738 304.4166673 -189.32822684 296.90520322 -189.36874419 289.3935467 C-189.39902771 283.57765328 -189.41372414 277.76184428 -189.41702431 271.94587362 C-189.41936312 268.47788728 -189.42816746 265.01021759 -189.45348549 261.54231644 C-189.48136441 257.66044184 -189.47689791 253.77894804 -189.4699707 249.89697266 C-189.48278076 248.765065 -189.49559082 247.63315735 -189.50878906 246.46694946 C-189.41963994 232.68096544 -184.36710857 220.68038369 -175.1875 210.4375 C-165.20719128 201.03266213 -137.86094301 185 -124 185 C-124.00444122 184.09290787 -124.00888245 183.18581573 -124.01345825 182.25123596 C-124.05364459 173.67453887 -124.08403996 165.09787371 -124.10362434 156.52110386 C-124.11403155 152.11241682 -124.12813441 147.70380803 -124.15087891 143.29516602 C-124.17271703 139.03522416 -124.18459163 134.77535724 -124.18975449 130.51536369 C-124.19343064 128.89558674 -124.20060893 127.27581358 -124.21146011 125.6560688 C-124.29248088 113.05325454 -124.33281713 101.68713392 -115.140625 92.05078125 C-107.93445275 85.38926155 -100.74730848 83.05546121 -91 83 C-88.99705318 83.31514305 -86.99651064 83.64636687 -85 84 C-85.0314209 82.54146606 -85.0314209 82.54146606 -85.06347656 81.0534668 C-85.13668232 77.39509203 -85.18208744 73.73677989 -85.21972656 70.07788086 C-85.23966084 68.50387635 -85.26681871 66.92994411 -85.30175781 65.35620117 C-85.56879452 53.0057536 -84.99428227 42.17905608 -76.00390625 32.72265625 C-69.62195976 27.23642155 -63.29035866 24.85772418 -54.9375 24.875 C-53.06384766 24.87113281 -53.06384766 24.87113281 -51.15234375 24.8671875 C-48 25 -48 25 -46 26 C-45.98582031 25.38253906 -45.97164062 24.76507813 -45.95703125 24.12890625 C-45.46539048 15.39896063 -42.67214014 9.23816977 -36.3125 3.1875 C-25.56710092 -5.44898898 -12.08379842 -6.93399171 0 0 Z " fill="#010101" transform="translate(460,143)"/>
<path d="M0 0 C5.97653706 4.43663652 10.2112807 10.32784073 11.4609375 17.73046875 C11.71414097 20.15643171 11.90013718 22.56334722 12 25 C12.99 24.505 12.99 24.505 14 24 C24.99139276 23.10959501 32.58080035 24.30888206 41.25 31.125 C46.3412145 35.83005452 49.69408155 42.18722219 51 49 C51.08316178 51.61897019 51.11634452 54.21001753 51.09765625 56.828125 C51.09553383 57.95163361 51.09553383 57.95163361 51.09336853 59.09783936 C51.08778659 61.48193412 51.07523745 63.86593378 51.0625 66.25 C51.05748266 67.86979031 51.05292016 69.48958209 51.04882812 71.109375 C51.03782308 75.07295312 51.02057091 79.03646045 51 83 C51.73968018 82.92056152 52.47936035 82.84112305 53.24145508 82.75927734 C54.22009521 82.6608252 55.19873535 82.56237305 56.20703125 82.4609375 C57.65686401 82.31084229 57.65686401 82.31084229 59.13598633 82.15771484 C68.25564702 81.65551547 74.82559342 85.6022272 81.6875 91.1875 C88.29670923 99.22572745 90.1310104 107.22790307 90.11352539 117.47412109 C90.11367142 118.19676147 90.11381744 118.91940186 90.1139679 119.66394043 C90.11327561 122.03380416 90.10551546 124.40358763 90.09765625 126.7734375 C90.09578964 128.42395993 90.09436688 130.07448292 90.09336853 131.7250061 C90.0895625 136.05521187 90.07974866 140.38538374 90.06866455 144.71557617 C90.05840917 149.13980654 90.05386209 153.56404241 90.04882812 157.98828125 C90.03812458 166.65886967 90.02107128 175.32943061 90 184 C90.56702637 184.18008102 91.13405273 184.36016205 91.71826172 184.54570007 C98.72726708 186.81891203 105.33743232 189.75479405 112.00195312 192.87817383 C113.99200309 193.80876048 115.9878309 194.72602304 117.984375 195.64257812 C134.71005496 203.39729911 145.75815843 211.63915277 153 229 C155.33417518 235.41999492 155.29589819 241.49584777 155.29052734 248.28173828 C155.29724457 249.50367889 155.30396179 250.72561951 155.31088257 251.98458862 C155.32657506 255.31919071 155.33323435 258.65354369 155.33451414 261.98816538 C155.33593973 264.07358132 155.34021683 266.15897145 155.34550858 268.24438095 C155.36397668 275.52507934 155.37218246 282.80570474 155.37060547 290.08642578 C155.36940206 296.86612927 155.39055135 303.64551545 155.4220928 310.42513859 C155.44824854 316.25547343 155.4589732 322.08570447 155.45769465 327.91609752 C155.45718519 331.3943856 155.46286036 334.87239082 155.48405075 338.35062027 C155.50702167 342.22622354 155.49791655 346.1013905 155.48583984 349.97705078 C155.49707886 351.12627014 155.50831787 352.2754895 155.51989746 353.45953369 C155.45819812 361.23313185 155.45819812 361.23313185 153.09463501 365.18893433 C150.02660034 367.8416219 148.35902551 368.12778669 144.389328 368.15390015 C143.4177626 368.16250061 142.4461972 368.17110107 141.44519043 368.17996216 C139.84073059 368.18635208 139.84073059 368.18635208 138.20385742 368.19287109 C137.08018265 368.20104858 135.95650787 368.20922607 134.79878235 368.21765137 C131.0676833 368.2425332 127.33662234 368.2590276 123.60546875 368.2734375 C122.33376642 368.27876118 121.06206409 368.28408485 119.75182533 368.28956985 C114.40829984 368.31080435 109.06478772 368.32993447 103.72123241 368.34119225 C96.0639262 368.35743088 88.40712747 368.3906063 80.75001258 368.44759309 C74.71652717 368.49096487 68.6832728 368.50693743 62.64962196 368.51332474 C60.08312682 368.5200545 57.51663955 368.53532089 54.95024681 368.55921555 C51.36121138 368.5907278 47.77346282 368.59092413 44.18432617 368.58349609 C42.58897537 368.6081041 42.58897537 368.6081041 40.96139526 368.63320923 C36.2473057 368.59319589 33.78550875 368.55696967 29.86347961 365.77603149 C26.87576047 361.3252168 26.87463103 357.53845399 26.88647461 352.29174805 C26.88658791 350.61057137 26.88658791 350.61057137 26.88670349 348.89543152 C26.89186478 347.6963063 26.89702606 346.49718109 26.90234375 345.26171875 C26.9037587 344.02581497 26.90517365 342.78991119 26.90663147 341.51655579 C26.91127382 338.24341655 26.92024689 334.97032713 26.93133545 331.69720459 C26.94159596 328.35217752 26.94605369 325.00714827 26.95117188 321.66210938 C26.96219093 315.1080535 26.97892164 308.55403082 27 302 C26.23226257 301.69980957 25.46452515 301.39961914 24.67352295 301.09033203 C21.71076447 299.88204225 18.99952346 298.43006154 16.203125 296.875 C15.08752197 296.25592773 13.97191895 295.63685547 12.82250977 294.99902344 C11.63137177 294.33322123 10.4405411 293.66686895 9.25 293 C8.64662811 292.66230591 8.04325623 292.32461182 7.42160034 291.97668457 C4.38617048 290.2766787 1.3530264 288.5726826 -1.67822266 286.86523438 C-4.49011948 285.28630657 -7.31089677 283.72564676 -10.13671875 282.171875 C-31.26530617 270.39098846 -41.76830993 253.86134157 -53.28564453 233.07714844 C-55.49199196 229.11690877 -57.74066486 225.18157509 -59.98950195 221.24536133 C-62.68658353 216.51188049 -65.34941398 211.75964557 -68 207 C-68.77102051 205.61820557 -68.77102051 205.61820557 -69.55761719 204.20849609 C-79.9946889 185.36508004 -86.30750382 167.73672152 -86.29052734 145.94458008 C-86.30060318 144.05949989 -86.30060318 144.05949989 -86.31088257 142.13633728 C-86.32651438 138.72326234 -86.33323063 135.31043084 -86.33451414 131.8973372 C-86.33594413 129.75961362 -86.34022934 127.62191496 -86.34550858 125.48419762 C-86.3639462 118.0119911 -86.37218598 110.53985547 -86.37060547 103.06762695 C-86.36940169 96.12317213 -86.39056624 89.17902688 -86.4220928 82.23465043 C-86.44828772 76.24962503 -86.45897162 70.26470069 -86.45769465 64.27961844 C-86.45718651 60.71466512 -86.46278899 57.14998827 -86.48405075 53.58509254 C-86.50710557 49.61235141 -86.49789252 45.64003337 -86.48583984 41.66723633 C-86.50269836 39.91290787 -86.50269836 39.91290787 -86.51989746 38.12313843 C-86.45672448 29.9228981 -85.11980317 24.72643157 -79.75 18.3125 C-71.29036314 11.19871446 -63.13476546 8.0995213 -52 9 C-49.25422158 9.51455621 -46.68417453 10.20468903 -44 11 C-43.7525 9.9790625 -43.7525 9.9790625 -43.5 8.9375 C-40.07695313 2.23403321 -33.66728271 -1.88402137 -26.6953125 -4.3359375 C-17.009562 -6.72228183 -8.57982676 -4.91694848 0 0 Z " fill="#010101" transform="translate(86,144)"/>
<path d="M0 0 C3.50710136 2.83583924 6.75140564 5.87566881 10 9 C11.07315053 9.88745932 12.15490275 10.76476857 13.25 11.625 C16.54700166 14.47241052 19.25842572 17.62650257 22 21 C25.25301796 19.6068597 27.03386216 18.05039845 29.25 15.3125 C41.09663013 1.37824715 56.74358756 -8.53423502 75 -11 C97.39690704 -12.80367771 118.30228036 -9.51557564 135.9921875 5.26953125 C136.65476562 5.84058594 137.31734375 6.41164063 138 7 C138.66257812 7.51949219 139.32515625 8.03898437 140.0078125 8.57421875 C158.46018467 23.51702209 167.60512704 48.13227832 171 71 C172.70522738 98.38242372 168.88294571 126.46493768 152 149 C151.42765625 149.79148438 150.8553125 150.58296875 150.265625 151.3984375 C139.49682595 165.39787627 126.05062523 178.32839741 112 189 C110.64415057 190.06948468 109.29015074 191.14131632 107.9375 192.21484375 C86.84740319 208.89297871 64.52407555 223.33234875 41.5 237.1875 C40.44361328 237.82341064 39.38722656 238.45932129 38.29882812 239.11450195 C35.54296144 240.76155593 32.77291785 242.38191441 30 244 C28.8965625 244.67675781 27.793125 245.35351562 26.65625 246.05078125 C21.9935317 247.71701735 18.87144465 245.41162708 14.609375 243.3984375 C13.31879082 242.73188693 12.03260007 242.05678753 10.75 241.375 C10.03545654 240.99529053 9.32091309 240.61558105 8.5847168 240.22436523 C-7.26767921 231.63372031 -22.9469708 222.08779061 -37.35742188 211.23486328 C-39.17140452 209.8711409 -40.99916833 208.52715949 -42.828125 207.18359375 C-51.84142796 200.53005778 -60.57760326 193.57387691 -69.22363281 186.45166016 C-70.79985045 185.16356366 -72.39474954 183.89840278 -73.9921875 182.63671875 C-100.06272871 161.96920274 -120.32030957 134.50241599 -124.72314453 100.85351562 C-126.16765843 85.96508669 -126.22150364 70.43754246 -122 56 C-121.63648437 54.74316406 -121.27296875 53.48632812 -120.8984375 52.19140625 C-116.99753547 39.39207394 -111.28256465 28.48692628 -103 18 C-102.43410156 17.27941406 -101.86820313 16.55882813 -101.28515625 15.81640625 C-77.35976559 -13.06294765 -31.48330436 -21.14056311 0 0 Z " fill="#FD445D" transform="translate(233,11)"/>
<path d="M0 0 C0.75925781 -0.02835938 1.51851562 -0.05671875 2.30078125 -0.0859375 C5.8821719 0.60572223 7.22439832 1.64073823 9.6875 4.375 C10.44654025 7.99177011 10.33898668 11.57205172 10.28686523 15.25537109 C10.29080795 16.36488129 10.29475067 17.47439148 10.29881287 18.61752319 C10.30553832 22.29495043 10.27630791 25.97114244 10.24609375 29.6484375 C10.24184223 32.20992797 10.23951492 34.7714223 10.23902893 37.33291626 C10.23285492 42.71155365 10.21076313 48.08975045 10.17456055 53.46826172 C10.13303768 59.65291865 10.11525801 65.83725613 10.1119408 72.02204454 C10.10866311 77.99786668 10.09346585 83.97357043 10.0719471 89.94935989 C10.06311845 92.47767118 10.05636278 95.00599064 10.05178642 97.5343132 C9.95714836 134.32510487 -0.54589858 158.21698325 -18.77441406 189.69726562 C-20.36688524 192.46968212 -21.93243187 195.25593443 -23.4921875 198.046875 C-24.0169165 198.98080078 -24.54164551 199.91472656 -25.08227539 200.87695312 C-26.07394365 202.64340636 -27.06054398 204.41271947 -28.04077148 206.18554688 C-36.07301642 220.42356116 -45.47089801 228.77318702 -59.8125 236.4375 C-62.21364159 237.74376289 -64.61044331 239.05792343 -67.0078125 240.37109375 C-67.61323883 240.70149658 -68.21866516 241.03189941 -68.84243774 241.37231445 C-75.17279963 244.8309646 -81.44140736 248.39109276 -87.6875 252 C-89.18313477 252.8509021 -89.18313477 252.8509021 -90.70898438 253.71899414 C-91.63775391 254.2577417 -92.56652344 254.79648926 -93.5234375 255.3515625 C-94.73459229 256.04886475 -94.73459229 256.04886475 -95.97021484 256.76025391 C-99.0525043 258.88515097 -101.07755152 260.29517051 -103.3125 263.375 C-104.0697375 267.5420823 -104.03403621 271.668313 -104.01953125 275.89453125 C-104.03415405 276.97069702 -104.04877686 278.04686279 -104.06384277 279.15563965 C-104.1111235 283.16603288 -104.11550934 287.1768393 -104.125 291.1875 C-104.186875 300.159375 -104.24875 309.13125 -104.3125 318.375 C-133.0225 318.375 -161.7325 318.375 -191.3125 318.375 C-191.47293524 291.82296822 -191.47293524 291.82296822 -191.5078125 280.47265625 C-191.53168946 272.73898287 -191.55988432 265.00549959 -191.61425781 257.27197266 C-191.65783688 251.03443701 -191.68166286 244.79710535 -191.69200897 238.55942917 C-191.69937863 236.18407355 -191.71376976 233.80872862 -191.73542023 231.43346024 C-191.76461368 228.09683681 -191.76844923 224.76104776 -191.76660156 221.42431641 C-191.78098267 220.4503894 -191.79536377 219.4764624 -191.81018066 218.47302246 C-191.7554827 209.29668759 -189.05640162 201.04671816 -182.6484375 194.30078125 C-177.45192756 190.01670198 -171.36422393 187.23754515 -165.3125 184.375 C-164.02037598 183.75963379 -164.02037598 183.75963379 -162.70214844 183.13183594 C-159.97521855 181.84268882 -157.24038762 180.5727681 -154.5 179.3125 C-153.18286011 178.70257202 -153.18286011 178.70257202 -151.83911133 178.08032227 C-151.01950928 177.71221436 -150.19990723 177.34410645 -149.35546875 176.96484375 C-148.62352295 176.63347412 -147.89157715 176.30210449 -147.13745117 175.96069336 C-145.3125 175.375 -145.3125 175.375 -143.3125 176.375 C-143.93898438 176.98988281 -144.56546875 177.60476563 -145.2109375 178.23828125 C-146.02820313 179.04652344 -146.84546875 179.85476563 -147.6875 180.6875 C-148.49960937 181.48800781 -149.31171875 182.28851563 -150.1484375 183.11328125 C-153.30242437 186.40959604 -154.58277218 188.36015376 -154.5 192.875 C-154.49033203 194.03515625 -154.49033203 194.03515625 -154.48046875 195.21875 C-154.3855565 197.55848849 -154.3855565 197.55848849 -153.3125 200.375 C-149.10254511 201.7783183 -145.68973216 202.41366526 -141.3125 201.375 C-136.17347996 197.91769885 -132.16747546 193.38081947 -128.15376282 188.71214294 C-124.36712491 184.37829691 -120.37165312 180.29314989 -116.29760742 176.23071289 C-115.52926575 175.4606189 -114.76092407 174.6905249 -113.96929932 173.89709473 C-111.45468139 171.37811117 -108.9364662 168.86276058 -106.41796875 166.34765625 C-104.66141899 164.59043234 -102.90501765 162.83306006 -101.14875793 161.07554626 C-97.48140973 157.40672862 -93.81227077 153.73971397 -90.1418457 150.07397461 C-86.36936861 146.30607834 -82.599074 142.53602409 -78.83129883 138.76342773 C-74.27386795 134.20021569 -69.71402003 129.63943507 -65.15206337 125.0807476 C-63.41412189 123.34347441 -61.67692625 121.60545476 -59.94048119 119.86668587 C-57.52286616 117.44654353 -55.10209019 115.02960897 -52.68041992 112.61352539 C-51.95989944 111.89098068 -51.23937897 111.16843597 -50.49702454 110.42399597 C-49.83967316 109.76946442 -49.18232178 109.11493286 -48.50505066 108.44056702 C-47.93341281 107.86930619 -47.36177496 107.29804537 -46.77281475 106.70947361 C-43.92171428 104.10406382 -41.21962295 103.98792624 -37.41796875 104.015625 C-33.69656547 104.65081814 -31.90937151 106.71479016 -29.3125 109.375 C-27.72706493 112.54587015 -27.97184563 114.85490484 -28.3125 118.375 C-31.20201103 124.46192734 -35.72958413 129.2785754 -40.375 134.0625 C-41.71659777 135.46831884 -43.05773789 136.87457457 -44.3984375 138.28125 C-45.06069336 138.9721875 -45.72294922 139.663125 -46.40527344 140.375 C-49.13733891 143.23996164 -51.82208156 146.14700259 -54.5 149.0625 C-55.45821358 150.10427683 -56.41654665 151.14594376 -57.375 152.1875 C-57.849375 152.703125 -58.32375 153.21875 -58.8125 153.75 C-60.43235149 155.50483912 -62.0593303 157.25287727 -63.6875 159 C-64.24155518 159.59594971 -64.79561035 160.19189941 -65.36645508 160.8059082 C-66.43221166 161.95194297 -67.49968015 163.09638884 -68.5690918 164.23901367 C-72.40635799 168.3724033 -73.74741841 170.53247687 -73.65234375 176.33203125 C-73.40848483 178.68910288 -73.40848483 178.68910288 -71.25 181.375 C-68.42226197 183.56278002 -68.42226197 183.56278002 -65 184.125 C-57.12784833 182.52388441 -51.34446961 174.49028727 -46.0625 168.75 C-45.41700195 168.05487305 -44.77150391 167.35974609 -44.10644531 166.64355469 C-42.17121159 164.55762263 -40.24146203 162.46673083 -38.3125 160.375 C-37.22944202 159.20547411 -36.14612654 158.03618661 -35.0625 156.8671875 C-33.09162093 154.73983928 -31.12765539 152.60640852 -29.16796875 150.46875 C-27.23455867 148.36320063 -25.27718297 146.28397159 -23.30078125 144.21875 C-15.87867442 136.40780792 -9.14686195 128.89088196 -9.21243286 117.60647583 C-9.21539368 116.65043457 -9.21835449 115.69439331 -9.22140503 114.7093811 C-9.22971344 113.66720428 -9.23802185 112.62502747 -9.24658203 111.55126953 C-9.25125488 110.44841614 -9.25592773 109.34556274 -9.26074219 108.20928955 C-9.27124566 105.8138951 -9.28390864 103.41850938 -9.29846573 101.02313614 C-9.32046105 97.23220927 -9.33455782 93.4413322 -9.34616089 89.65036011 C-9.379783 78.87148939 -9.42117991 68.09270727 -9.48388672 57.31396484 C-9.52214649 50.72174509 -9.54455607 44.12958171 -9.55819321 37.53725815 C-9.56625027 35.02463281 -9.57986303 32.51201893 -9.59912491 29.9994545 C-9.62559394 26.48536933 -9.63349639 22.97169199 -9.63720703 19.45751953 C-9.6495639 18.41939117 -9.66192078 17.38126282 -9.6746521 16.31167603 C-9.65452079 9.08468694 -8.9043224 0.14965248 0 0 Z " fill="#FAD3A0" transform="translate(482.3125,173.625)"/>
<path d="M0 0 C3.21954645 2.53453657 4.70432435 4.11297305 6 8 C6.08113408 9.53862754 6.10476298 11.0806303 6.09333801 12.62135315 C6.08893204 13.57023911 6.08452606 14.51912506 6.07998657 15.49676514 C6.07010712 16.53625305 6.06022766 17.57574097 6.05004883 18.64672852 C6.04376968 19.74301071 6.03749054 20.83929291 6.03102112 21.96879578 C6.01715401 24.35383379 6.00121455 26.73886044 5.98346901 29.12387276 C5.95686011 32.90321321 5.93897061 36.68249533 5.92399597 40.4618988 C5.88122402 51.20949339 5.83419203 61.95696467 5.75317383 72.7043457 C5.70373123 79.27597272 5.67562154 85.84748845 5.65942955 92.41929436 C5.64955177 94.92025631 5.63237186 97.4212008 5.60764503 99.92206001 C5.57374084 103.43074261 5.56500305 106.93868308 5.56176758 110.44750977 C5.54581543 111.47282806 5.52986328 112.49814636 5.51342773 113.55453491 C5.556343 123.80957775 8.7943765 131.55295416 15.6875 139.0625 C16.21496826 139.65756348 16.74243652 140.25262695 17.28588867 140.86572266 C20.96295663 144.97535409 24.77903244 148.93488524 28.76953125 152.7421875 C31.32900316 155.33303647 33.6891539 158.06074931 36.07543945 160.81054688 C39.36535994 164.55328529 42.77483319 168.18193522 46.1875 171.8125 C46.88552734 172.56208984 47.58355469 173.31167969 48.30273438 174.08398438 C48.98013672 174.80521484 49.65753906 175.52644531 50.35546875 176.26953125 C50.96028076 176.91510986 51.56509277 177.56068848 52.18823242 178.22583008 C55.2615439 181.23536444 57.10434435 182.86972281 61.4375 183.5 C65.09093382 183.25511122 65.09093382 183.25511122 67.9375 181 C70.05445517 177.92079248 70.86589918 175.86333955 70.60546875 172.09765625 C69.37029631 167.81838143 66.07161645 165.07733641 63 162 C61.65981838 160.50611546 60.32691364 159.00568189 59 157.5 C54.93191268 152.98761646 50.78484206 148.55278176 46.625 144.125 C45.98208008 143.43937988 45.33916016 142.75375977 44.67675781 142.04736328 C41.69048062 138.86285517 38.69974842 135.68300717 35.6953125 132.515625 C34.71320014 131.4690704 33.73140772 130.42221542 32.75 129.375 C31.89921875 128.47523438 31.0484375 127.57546875 30.171875 126.6484375 C27.02314917 122.80880421 25.20350439 119.4245307 24.5 114.5 C25.16821447 109.82249871 26.68944344 108.31055656 30 105 C33.30486379 103.34756811 36.45442354 103.24123925 40 104 C41.8834734 105.29085445 41.8834734 105.29085445 43.75117493 107.01707458 C44.79377944 107.97508626 44.79377944 107.97508626 45.85744667 108.95245171 C49.39900482 112.33697019 52.8970362 115.75805157 56.35620117 119.22680664 C57.14913071 120.01798386 57.94206024 120.80916107 58.75901794 121.62431335 C61.35617406 124.21709991 63.94969252 126.81348952 66.54296875 129.41015625 C68.35787096 131.22438415 70.17292154 133.03846364 71.9881134 134.85240173 C75.78138226 138.64420037 79.57289461 142.43774269 83.36303711 146.23266602 C87.73283043 150.60790795 92.10622487 154.97952547 96.48149127 159.34929377 C100.70934107 163.57204522 104.93435774 167.79761847 109.1581974 172.02438164 C110.94798754 173.8148375 112.73851708 175.60455457 114.52980614 177.39351082 C117.03296261 179.8941214 119.5328804 182.39792617 122.03198242 184.90258789 C122.76819824 185.63677948 123.50441406 186.37097107 124.26293945 187.12741089 C127.24392905 190.12066694 130.14644232 193.099969 132.8105011 196.38108826 C135.03835448 199.04587671 136.59553727 200.84988532 140.15625 201.23046875 C140.9296875 201.21628906 141.703125 201.20210937 142.5 201.1875 C143.66015625 201.17783203 143.66015625 201.17783203 144.84375 201.16796875 C147.18348849 201.0730565 147.18348849 201.0730565 150 200 C151.39973594 195.80079218 152.06871233 192.36168221 151 188 C148.93175882 185.11030012 146.67513977 182.67513977 144.1640625 180.1640625 C142 178 142 178 140 175 C146.53021573 177.0637741 152.67593423 179.88912478 158.88549805 182.74780273 C160.24864717 183.37204557 161.61486989 183.98962168 162.98413086 184.6003418 C173.93924199 189.48816896 182.51092262 194.29461005 187 206 C187.86038932 208.93051907 188.12380136 211.53083172 188.12025452 214.58111572 C188.12231651 215.95245667 188.12231651 215.95245667 188.12442017 217.35150146 C188.12082489 218.34700012 188.11722961 219.34249878 188.11352539 220.36816406 C188.11367142 221.42213379 188.11381744 222.47610352 188.1139679 223.56201172 C188.1132711 227.0465704 188.10548953 230.53107566 188.09765625 234.015625 C188.09579124 236.43129446 188.09436773 238.8469643 188.09336853 241.26263428 C188.08954986 247.62155196 188.07972508 253.98044681 188.06866455 260.33935547 C188.05663829 267.96853158 188.0520451 275.59771532 188.04621124 283.22689819 C188.03651302 294.81794801 188.01735187 306.40894773 188 318 C159.29 318 130.58 318 101 318 C100.8125 290.8125 100.8125 290.8125 100.79223633 282.24926758 C100.7657892 280.00599824 100.73751181 277.76274941 100.70703125 275.51953125 C100.71101929 274.35756226 100.71500732 273.19559326 100.71911621 271.99841309 C100.67939977 265.54411226 100.67939977 265.54411226 97.81860352 259.93823242 C94.98665422 257.99082268 92.1936091 256.15115705 89.1953125 254.46875 C88.06536865 253.82953613 86.9354248 253.19032227 85.77124023 252.53173828 C85.17656952 252.20046936 84.5818988 251.86920044 83.96920776 251.52789307 C82.09585236 250.48375419 80.22912322 249.42853503 78.36352539 248.37060547 C72.41112463 245.00171049 66.43399438 241.68257459 60.42578125 238.4140625 C44.60711415 229.76708072 33.89222096 222.099713 25 206 C23.95172498 204.13864426 22.90213259 202.27803009 21.8515625 200.41796875 C19.4459565 196.14812786 17.05617412 191.86988121 14.67578125 187.5859375 C12.2824684 183.28419406 9.86472913 178.99812822 7.41796875 174.7265625 C-5.16359215 152.75937709 -13.08805742 133.92865815 -13.19287109 108.27978516 C-13.20104858 107.15333588 -13.20922607 106.0268866 -13.21765137 104.86630249 C-13.24227832 101.17389437 -13.25895146 97.48152373 -13.2734375 93.7890625 C-13.27876118 92.5234486 -13.28408485 91.2578347 -13.28956985 89.95386887 C-13.31073331 84.64004119 -13.32986937 79.32622642 -13.34119225 74.01236916 C-13.35748134 66.42280491 -13.39085775 58.83374798 -13.44759309 51.24437487 C-13.49091565 45.24397339 -13.50693038 39.24380396 -13.51332474 33.24323654 C-13.52005338 30.69545221 -13.5353169 28.14767579 -13.55921555 25.59999466 C-13.59067302 22.04754537 -13.59093404 18.4963984 -13.58349609 14.94384766 C-13.59990143 13.88925354 -13.61630676 12.83465942 -13.63320923 11.74810791 C-13.57197578 4.62923789 -13.57197578 4.62923789 -10.59243774 1.35140991 C-6.88130202 -0.58316522 -4.07886222 -0.97233483 0 0 Z " fill="#FAD3A0" transform="translate(33,174)"/>
<path d="M0 0 C3.50710136 2.83583924 6.75140564 5.87566881 10 9 C11.07315053 9.88745932 12.15490275 10.76476857 13.25 11.625 C16.54700166 14.47241052 19.25842572 17.62650257 22 21 C25.25301796 19.6068597 27.03386216 18.05039845 29.25 15.3125 C41.09663013 1.37824715 56.74358756 -8.53423502 75 -11 C97.39690704 -12.80367771 118.30228036 -9.51557564 135.9921875 5.26953125 C136.65476562 5.84058594 137.31734375 6.41164063 138 7 C138.66257812 7.51949219 139.32515625 8.03898437 140.0078125 8.57421875 C158.46018467 23.51702209 167.60512704 48.13227832 171 71 C172.70522738 98.38242372 168.88294571 126.46493768 152 149 C151.42765625 149.79148438 150.8553125 150.58296875 150.265625 151.3984375 C139.49682595 165.39787627 126.05062523 178.32839741 112 189 C110.64415057 190.06948468 109.29015074 191.14131632 107.9375 192.21484375 C86.84740319 208.89297871 64.52407555 223.33234875 41.5 237.1875 C40.44361328 237.82341064 39.38722656 238.45932129 38.29882812 239.11450195 C35.54296144 240.76155593 32.77291785 242.38191441 30 244 C28.8965625 244.67675781 27.793125 245.35351562 26.65625 246.05078125 C21.9935317 247.71701735 18.87144465 245.41162708 14.609375 243.3984375 C13.31879082 242.73188693 12.03260007 242.05678753 10.75 241.375 C10.03545654 240.99529053 9.32091309 240.61558105 8.5847168 240.22436523 C-7.26767921 231.63372031 -22.9469708 222.08779061 -37.35742188 211.23486328 C-39.17140452 209.8711409 -40.99916833 208.52715949 -42.828125 207.18359375 C-51.84142796 200.53005778 -60.57760326 193.57387691 -69.22363281 186.45166016 C-70.79985045 185.16356366 -72.39474954 183.89840278 -73.9921875 182.63671875 C-100.06272871 161.96920274 -120.32030957 134.50241599 -124.72314453 100.85351562 C-126.16765843 85.96508669 -126.22150364 70.43754246 -122 56 C-121.63648437 54.74316406 -121.27296875 53.48632812 -120.8984375 52.19140625 C-116.99753547 39.39207394 -111.28256465 28.48692628 -103 18 C-102.43410156 17.27941406 -101.86820313 16.55882813 -101.28515625 15.81640625 C-77.35976559 -13.06294765 -31.48330436 -21.14056311 0 0 Z M-77 21 C-77.63164062 21.44859375 -78.26328125 21.8971875 -78.9140625 22.359375 C-94.69646243 34.61055303 -102.57250797 55.77664033 -105 75 C-106.83332187 96.19683716 -102.31637205 120.51142686 -89.0234375 137.59375 C-88.02183594 138.78484375 -88.02183594 138.78484375 -87 140 C-86.11704596 141.09363574 -85.23424567 142.18739563 -84.3515625 143.28125 C-77.53159635 151.59290528 -70.08657105 158.93344519 -62 166 C-61.49952148 166.44375977 -60.99904297 166.88751953 -60.48339844 167.34472656 C-46.8826444 179.37787568 -32.09500524 190.00580199 -17.17883301 200.3348999 C-16.06427565 201.10839606 -14.95250203 201.8859197 -13.84362793 202.6675415 C-12.29004918 203.75985211 -10.72338913 204.83348518 -9.15625 205.90625 C-8.25712891 206.52822266 -7.35800781 207.15019531 -6.43164062 207.79101562 C-4.14453199 209.18342439 -4.14453199 209.18342439 -1.94750977 208.86010742 C0.30785199 207.86403879 2.26367714 206.70118969 4.31640625 205.33203125 C5.15381348 204.77539795 5.9912207 204.21876465 6.85400391 203.64526367 C7.74780762 203.04045166 8.64161133 202.43563965 9.5625 201.8125 C10.48981934 201.18899658 11.41713867 200.56549316 12.37255859 199.9230957 C25.7009755 190.89442383 38.71919372 181.41788574 51 171 C52.08166045 170.10371899 53.16371519 169.20791367 54.24609375 168.3125 C70.42710815 154.81996023 85.49304036 140.67036765 94 121 C94.35707031 120.19820313 94.71414063 119.39640625 95.08203125 118.5703125 C101.49517342 102.76564004 102.53026938 84.72349921 100 68 C99.67156255 63.93874459 99.47126997 60.32182508 101 56.5 C104.06796383 54.19902713 107.26611802 53.81038881 111 54 C113.85672141 55.17995015 115.40023429 56.05845603 117.0625 58.66796875 C125.38580753 79.37219623 119.78045562 108.13766322 111.69995117 127.88574219 C101.52993306 151.6935 83.23673665 170.25090788 63 186 C61.82365951 186.97274963 60.65072809 187.94963043 59.48046875 188.9296875 C50.57694943 196.35569288 41.33904303 203.13965299 31.7890625 209.7109375 C31.0146582 210.24428711 30.24025391 210.77763672 29.44238281 211.32714844 C27.69204272 212.52600192 25.93543308 213.71572163 24.17480469 214.89941406 C23.25860352 215.52299805 22.34240234 216.14658203 21.3984375 216.7890625 C20.13652588 217.63911865 20.13652588 217.63911865 18.84912109 218.50634766 C18.23891113 218.99925293 17.62870117 219.4921582 17 220 C17 220.66 17 221.32 17 222 C19.35065517 223.53696684 20.74728936 224.00918948 23.578125 223.90625 C28.37159624 222.6367462 32.01016989 220.14741598 36.125 217.4375 C36.97392822 216.88884277 37.82285645 216.34018555 38.69750977 215.77490234 C41.13835089 214.19322428 43.57004615 212.59833447 46 211 C47.58748047 209.96939453 47.58748047 209.96939453 49.20703125 208.91796875 C63.52812915 199.51398601 77.56961953 189.6394088 91 179 C91.83144531 178.3503125 92.66289062 177.700625 93.51953125 177.03125 C96.03598281 175.04735927 98.52333194 173.03335913 101 171 C101.76666992 170.37085693 101.76666992 170.37085693 102.54882812 169.72900391 C126.56101597 149.90548283 146.93586231 127.9238234 150.71875 95.66015625 C152.49602457 72.53090243 148.164399 50.72338572 134 32 C133.36578125 31.15824219 132.7315625 30.31648438 132.078125 29.44921875 C125.81499581 22.06767364 117.85669566 16.7493345 109 13 C108.2884375 12.69320313 107.576875 12.38640625 106.84375 12.0703125 C94.72688597 7.17696356 80.55676365 7.61814347 68.2578125 11.5390625 C56.25909191 16.91978372 48.4931189 25.2472017 39.74072266 34.79394531 C28.68938749 46.78444382 28.68938749 46.78444382 23 47.640625 C15.2172001 46.46941161 9.51831929 38.34877041 4.5 32.875 C-8.3293025 19.11634753 -19.84888276 9.39828917 -39.64038086 8.47631836 C-53.80674141 8.23692508 -65.55294946 12.55732485 -77 21 Z " fill="#010000" transform="translate(233,11)"/>
<path d="M0 0 C2.65370288 1.99835609 4.68065975 3.61687123 5.45273781 6.96090126 C5.61582406 9.38628232 5.61837128 11.76609296 5.56762695 14.1965332 C5.56835709 15.11409897 5.56908722 16.03166473 5.56983948 16.97703552 C5.56636308 20.00222409 5.52749906 23.02586251 5.48828125 26.05078125 C5.47895332 28.15112975 5.47183711 30.25148914 5.46684265 32.35185242 C5.44777142 37.87425891 5.39866887 43.39600565 5.34332275 48.91815186 C5.29213337 54.55536983 5.26932923 60.19269462 5.24414062 65.83007812 C5.19055058 76.88705494 5.10261301 87.94336934 5 99 C-1.27 99 -7.54 99 -14 99 C-14.09039925 87.10832635 -14.16377283 75.21688124 -14.20724869 63.32494164 C-14.2281158 57.80292359 -14.25641786 52.28115299 -14.30175781 46.75927734 C-14.3452462 41.42949621 -14.3691437 36.09995297 -14.37950897 30.77000809 C-14.38689492 28.73743572 -14.40131798 26.70487624 -14.42292023 24.67240524 C-14.45199369 21.82347312 -14.45595432 18.97552166 -14.45410156 16.12646484 C-14.46848267 15.28776855 -14.48286377 14.44907227 -14.49768066 13.58496094 C-14.46027029 8.26220443 -13.54887664 5.2182879 -10 1 C-6.84203893 -0.57898053 -3.39329364 -0.81928171 0 0 Z " fill="#F8B68A" transform="translate(448,160)"/>
<path d="M0 0 C3.28079607 0.84836747 4.90003114 2.9118294 6.93359375 5.5 C8.59235172 8.81751593 8.06248678 12.52597054 8.04711914 16.17236328 C8.04726517 17.06998383 8.04741119 17.96760437 8.04756165 18.89242554 C8.04686328 21.86841218 8.03907442 24.84433675 8.03125 27.8203125 C8.02938555 29.88011643 8.02796177 31.93992081 8.02696228 33.99972534 C8.02313923 39.42817402 8.01331074 44.85659605 8.0022583 50.28503418 C7.99203963 55.82152954 7.98746368 61.35802919 7.98242188 66.89453125 C7.97168829 77.76303444 7.95409319 88.63151084 7.93359375 99.5 C1.66359375 99.5 -4.60640625 99.5 -11.06640625 99.5 C-11.17934934 87.33029472 -11.27108938 75.16093729 -11.32546711 62.99082661 C-11.35156518 57.33979642 -11.38696783 51.68914326 -11.44360352 46.03833008 C-11.49791466 40.58534729 -11.5278252 35.13272723 -11.54079247 29.67949486 C-11.55003387 27.59862749 -11.56808027 25.51778006 -11.59505653 23.43706703 C-11.63133445 20.52311877 -11.63635206 17.61067081 -11.6340332 14.6965332 C-11.65200958 13.83554016 -11.66998596 12.97454712 -11.68850708 12.08746338 C-11.65065166 7.69348868 -11.48489034 6.02746396 -8.65983582 2.46672058 C-5.42667077 0.01485826 -3.90928679 -0.2364786 0 0 Z " fill="#F8B68A" transform="translate(70.06640625,159.5)"/>
<path d="M0 0 C2.7253915 2.00811666 4.68685278 3.5991714 5.44875526 7.00745583 C5.61637522 9.50917362 5.61831652 11.96500529 5.56762695 14.47192383 C5.56835709 15.41875031 5.56908722 16.36557678 5.56983948 17.34109497 C5.56636229 20.46366104 5.52749396 23.5847265 5.48828125 26.70703125 C5.47895362 28.87464076 5.47183727 31.04226082 5.46684265 33.20988464 C5.44776913 38.90983275 5.39866445 44.60914191 5.34332275 50.30883789 C5.29213841 56.12702796 5.2693303 61.94532146 5.24414062 67.76367188 C5.19054673 79.17606169 5.10522897 90.58797767 5 102 C2.0510636 100.5846017 -0.02260872 99.22500776 -2.3125 96.875 C-2.84488281 96.33617187 -3.37726563 95.79734375 -3.92578125 95.2421875 C-4.61027344 94.50226563 -5.29476562 93.76234375 -6 93 C-6.56218735 92.56029373 -7.12437469 92.12058746 -7.70359802 91.66755676 C-11.86982494 87.93796795 -13.40860656 84.71049678 -13.80076694 79.08904552 C-13.9325252 75.02126349 -13.91196465 70.96356734 -13.859375 66.89453125 C-13.85901087 65.12432246 -13.86102259 63.35411175 -13.86529541 61.58390808 C-13.86658614 57.88594818 -13.84372863 54.18918226 -13.80273438 50.49145508 C-13.75154785 45.75649771 -13.75388819 41.02340879 -13.77334213 36.28827381 C-13.7836447 32.63783066 -13.76921292 28.9878159 -13.74695587 25.33743858 C-13.73860567 23.5915791 -13.73709467 21.84567277 -13.74260712 20.09980202 C-13.74589542 17.66039957 -13.71673111 15.22348679 -13.67871094 12.78442383 C-13.68917953 11.70815231 -13.68917953 11.70815231 -13.69985962 10.61013794 C-13.60085442 6.71480846 -13.09923356 5.12002947 -10.58258057 2.07597351 C-6.5918418 -1.13192949 -4.97895995 -1.36677332 0 0 Z " fill="#FCBA8D" transform="translate(111,189)"/>
<path d="M0 0 C0.639375 -0.01289063 1.27875 -0.02578125 1.9375 -0.0390625 C5.26838195 1.03338055 6.79405247 2.95130106 9 5.625 C9.55148271 8.36630621 9.79357518 10.52022724 9.8215332 13.26660156 C9.84796402 14.02031036 9.87439484 14.77401917 9.90162659 15.55056763 C9.97959034 18.03911632 10.01867925 20.5260847 10.05078125 23.015625 C10.06616629 23.87242607 10.08155132 24.72922714 10.09740257 25.61199188 C10.17817772 30.1573953 10.22940292 34.70201536 10.25610352 39.24804688 C10.28241245 42.98067705 10.35845037 46.70682888 10.48168945 50.4375 C11.59204978 84.67082994 11.59204978 84.67082994 3.27983093 94.48431396 C-5.04432206 102.625 -5.04432206 102.625 -9 102.625 C-9.1158215 90.06422351 -9.20467903 77.50357394 -9.25906086 64.94237232 C-9.28516077 59.10974588 -9.32056691 53.27748462 -9.37719727 47.44506836 C-9.43150164 41.81702266 -9.46141756 36.18932834 -9.47438622 30.56104088 C-9.48362882 28.41318924 -9.50167751 26.26535696 -9.52865028 24.1176548 C-9.56491891 21.1103209 -9.56994616 18.10444104 -9.56762695 15.09692383 C-9.58560333 14.20787857 -9.60357971 13.31883331 -9.62210083 12.40284729 C-9.58485611 7.94297679 -9.44576216 6.19003379 -6.59342957 2.57450867 C-4.08822427 0.69131913 -3.06740464 -0.06184284 0 0 Z " fill="#FDBA8D" transform="translate(405,188.375)"/>
<path d="M0 0 C3.41632109 0.89475076 4.90701169 2.88545263 7.1328125 5.55859375 C7.73408508 8.70344543 7.73408508 8.70344543 7.70043945 12.27661133 C7.70116959 12.93083069 7.70189972 13.58505005 7.70265198 14.25909424 C7.69918588 16.40796675 7.66037914 18.55463431 7.62109375 20.703125 C7.61176195 22.19812333 7.60464757 23.69313701 7.59965515 25.18815613 C7.58061368 29.11272804 7.53153931 33.03636673 7.47613525 36.96057129 C7.4248801 40.96902849 7.40212786 44.9776373 7.37695312 48.98632812 C7.32341619 56.84417707 7.23813985 64.70126914 7.1328125 72.55859375 C0.78632408 69.92203945 -5.55786922 67.2830721 -11.8671875 64.55859375 C-11.9367955 57.21313421 -11.99005334 49.86774616 -12.02262402 42.5220232 C-12.03825889 39.11083614 -12.05945664 35.69987526 -12.09350586 32.28881836 C-12.13243241 28.36444841 -12.1469148 24.44016904 -12.16015625 20.515625 C-12.17564011 19.29462601 -12.19112396 18.07362701 -12.20707703 16.81562805 C-12.20730362 15.67482285 -12.20753021 14.53401764 -12.20776367 13.35864258 C-12.21442551 12.35714676 -12.22108734 11.35565094 -12.22795105 10.32380676 C-11.80028279 7.04577649 -10.81862863 5.20839122 -8.8671875 2.55859375 C-5.69899994 0.44646871 -3.73499498 0.22702911 0 0 Z " fill="#F7B68A" transform="translate(147.8671875,246.44140625)"/>
<path d="M0 0 C3.28079607 0.84836747 4.90003114 2.9118294 6.93359375 5.5 C8.24120268 8.11521785 8.05356923 10.03113401 8.04711914 12.95947266 C8.04704361 14.10050446 8.04696808 15.24153625 8.04689026 16.41714478 C8.04172897 17.65362762 8.03656769 18.89011047 8.03125 20.1640625 C8.02983505 21.42640717 8.0284201 22.68875183 8.02696228 23.98934937 C8.02230453 27.34638299 8.01331783 30.703349 8.0022583 34.06036377 C7.99203145 37.48554906 7.98746193 40.91074134 7.98242188 44.3359375 C7.97137613 51.05731284 7.95410299 57.77864714 7.93359375 64.5 C-1.47140625 68.46 -1.47140625 68.46 -11.06640625 72.5 C-11.17944899 63.85066508 -11.27114537 55.20182216 -11.32546711 46.55191517 C-11.35154132 42.53522572 -11.38689803 38.51906862 -11.44360352 34.50268555 C-11.49800334 30.62526419 -11.52784316 26.74835425 -11.54079247 22.87058067 C-11.55001827 21.39256426 -11.56803483 19.91457529 -11.59505653 18.43677711 C-11.63145713 16.36324626 -11.63634764 14.29181746 -11.6340332 12.21801758 C-11.64513626 11.03887283 -11.65623932 9.85972809 -11.66767883 8.64485168 C-10.4364346 2.20504286 -6.12658276 -0.37060614 0 0 Z " fill="#F7B68A" transform="translate(368.06640625,246.5)"/>
<path d="M0 0 C2.9375 2.4375 2.9375 2.4375 5 5 C5.33 5.33 5.66 5.66 6 6 C6.61192269 11.26253509 5.24509023 13.8959153 2 18 C-1.46782828 19.73391414 -5.20833321 19.45877819 -9 19 C-11.89115314 17.33758695 -12.69207311 16.08584747 -13.59375 12.90625 C-14.31784262 8.7287926 -14.42885043 6.7098214 -12.1875 3 C-8.50284193 -0.36883023 -4.87415967 -0.86838477 0 0 Z " fill="#050403" transform="translate(398,364)"/>
<path d="M0 0 C2.8100346 1.79363911 4.50940468 3.01880935 6 6 C6.0407792 10.22472472 5.64803461 13.89294087 3.5 17.5625 C-0.28307292 19.73776693 -3.75020497 19.90147167 -8 19 C-10.75569447 16.81840855 -12.43588747 15.12822506 -14 12 C-14.43023798 8.12785818 -14.31669086 6.47503629 -12.125 3.1875 C-8.54649133 -0.49625892 -4.96468334 -0.71331657 0 0 Z " fill="#050403" transform="translate(122,364)"/>
</svg>
